G04 #@! TF.FileFunction,Legend,Bot*
%FSLAX46Y46*%
G04 Gerber Fmt 4.6, Leading zero omitted, Abs format (unit mm)*
G04 Created by KiCad (PCBNEW (2015-11-17 BZR 6321)-product) date Tue 19 Jan 2016 02:12:06 PM EST*
%MOMM*%
G01*
G04 APERTURE LIST*
%ADD10C,0.100000*%
%ADD11C,0.250000*%
%ADD12C,0.150000*%
G04 APERTURE END LIST*
D10*
D11*
X170995715Y-101007857D02*
X170662381Y-101007857D01*
X170519524Y-101793571D02*
X170995715Y-101793571D01*
X170995715Y-100293571D01*
X170519524Y-100293571D01*
X170186191Y-100793571D02*
X169948096Y-101793571D01*
X169710000Y-100793571D02*
X169948096Y-101793571D01*
X170043334Y-102150714D01*
X170090953Y-102222143D01*
X170186191Y-102293571D01*
X168948095Y-101722143D02*
X169043333Y-101793571D01*
X169233810Y-101793571D01*
X169329048Y-101722143D01*
X169376667Y-101579286D01*
X169376667Y-101007857D01*
X169329048Y-100865000D01*
X169233810Y-100793571D01*
X169043333Y-100793571D01*
X168948095Y-100865000D01*
X168900476Y-101007857D01*
X168900476Y-101150714D01*
X169376667Y-101293571D01*
X168471905Y-101793571D02*
X168471905Y-100293571D01*
X168471905Y-100865000D02*
X168376667Y-100793571D01*
X168186190Y-100793571D01*
X168090952Y-100865000D01*
X168043333Y-100936429D01*
X167995714Y-101079286D01*
X167995714Y-101507857D01*
X168043333Y-101650714D01*
X168090952Y-101722143D01*
X168186190Y-101793571D01*
X168376667Y-101793571D01*
X168471905Y-101722143D01*
X167567143Y-101793571D02*
X167567143Y-100793571D01*
X167567143Y-101079286D02*
X167519524Y-100936429D01*
X167471905Y-100865000D01*
X167376667Y-100793571D01*
X167281428Y-100793571D01*
X166805238Y-101793571D02*
X166900476Y-101722143D01*
X166948095Y-101650714D01*
X166995714Y-101507857D01*
X166995714Y-101079286D01*
X166948095Y-100936429D01*
X166900476Y-100865000D01*
X166805238Y-100793571D01*
X166662380Y-100793571D01*
X166567142Y-100865000D01*
X166519523Y-100936429D01*
X166471904Y-101079286D01*
X166471904Y-101507857D01*
X166519523Y-101650714D01*
X166567142Y-101722143D01*
X166662380Y-101793571D01*
X166805238Y-101793571D01*
X166138571Y-100793571D02*
X165948095Y-101793571D01*
X165757618Y-101079286D01*
X165567142Y-101793571D01*
X165376666Y-100793571D01*
X164043333Y-100293571D02*
X163852856Y-100293571D01*
X163757618Y-100365000D01*
X163662380Y-100507857D01*
X163614761Y-100793571D01*
X163614761Y-101293571D01*
X163662380Y-101579286D01*
X163757618Y-101722143D01*
X163852856Y-101793571D01*
X164043333Y-101793571D01*
X164138571Y-101722143D01*
X164233809Y-101579286D01*
X164281428Y-101293571D01*
X164281428Y-100793571D01*
X164233809Y-100507857D01*
X164138571Y-100365000D01*
X164043333Y-100293571D01*
X163186190Y-101793571D02*
X163186190Y-100793571D01*
X163186190Y-101079286D02*
X163138571Y-100936429D01*
X163090952Y-100865000D01*
X162995714Y-100793571D01*
X162900475Y-100793571D01*
X162138570Y-100793571D02*
X162138570Y-102007857D01*
X162186189Y-102150714D01*
X162233808Y-102222143D01*
X162329047Y-102293571D01*
X162471904Y-102293571D01*
X162567142Y-102222143D01*
X162138570Y-101722143D02*
X162233808Y-101793571D01*
X162424285Y-101793571D01*
X162519523Y-101722143D01*
X162567142Y-101650714D01*
X162614761Y-101507857D01*
X162614761Y-101079286D01*
X162567142Y-100936429D01*
X162519523Y-100865000D01*
X162424285Y-100793571D01*
X162233808Y-100793571D01*
X162138570Y-100865000D01*
X161233808Y-101793571D02*
X161233808Y-101007857D01*
X161281427Y-100865000D01*
X161376665Y-100793571D01*
X161567142Y-100793571D01*
X161662380Y-100865000D01*
X161233808Y-101722143D02*
X161329046Y-101793571D01*
X161567142Y-101793571D01*
X161662380Y-101722143D01*
X161709999Y-101579286D01*
X161709999Y-101436429D01*
X161662380Y-101293571D01*
X161567142Y-101222143D01*
X161329046Y-101222143D01*
X161233808Y-101150714D01*
X160757618Y-100793571D02*
X160757618Y-101793571D01*
X160757618Y-100936429D02*
X160709999Y-100865000D01*
X160614761Y-100793571D01*
X160471903Y-100793571D01*
X160376665Y-100865000D01*
X160329046Y-101007857D01*
X160329046Y-101793571D01*
X159186189Y-100793571D02*
X158948094Y-101793571D01*
X158709998Y-100793571D01*
X157805236Y-101793571D02*
X158376665Y-101793571D01*
X158090951Y-101793571D02*
X158090951Y-100293571D01*
X158186189Y-100507857D01*
X158281427Y-100650714D01*
X158376665Y-100722143D01*
X157376665Y-101650714D02*
X157329046Y-101722143D01*
X157376665Y-101793571D01*
X157424284Y-101722143D01*
X157376665Y-101650714D01*
X157376665Y-101793571D01*
X156709999Y-100293571D02*
X156614760Y-100293571D01*
X156519522Y-100365000D01*
X156471903Y-100436429D01*
X156424284Y-100579286D01*
X156376665Y-100865000D01*
X156376665Y-101222143D01*
X156424284Y-101507857D01*
X156471903Y-101650714D01*
X156519522Y-101722143D01*
X156614760Y-101793571D01*
X156709999Y-101793571D01*
X156805237Y-101722143D01*
X156852856Y-101650714D01*
X156900475Y-101507857D01*
X156948094Y-101222143D01*
X156948094Y-100865000D01*
X156900475Y-100579286D01*
X156852856Y-100436429D01*
X156805237Y-100365000D01*
X156709999Y-100293571D01*
X169948095Y-104143571D02*
X169948095Y-103357857D01*
X169995714Y-103215000D01*
X170090952Y-103143571D01*
X170281429Y-103143571D01*
X170376667Y-103215000D01*
X169948095Y-104072143D02*
X170043333Y-104143571D01*
X170281429Y-104143571D01*
X170376667Y-104072143D01*
X170424286Y-103929286D01*
X170424286Y-103786429D01*
X170376667Y-103643571D01*
X170281429Y-103572143D01*
X170043333Y-103572143D01*
X169948095Y-103500714D01*
X169043333Y-104143571D02*
X169043333Y-103357857D01*
X169090952Y-103215000D01*
X169186190Y-103143571D01*
X169376667Y-103143571D01*
X169471905Y-103215000D01*
X169043333Y-104072143D02*
X169138571Y-104143571D01*
X169376667Y-104143571D01*
X169471905Y-104072143D01*
X169519524Y-103929286D01*
X169519524Y-103786429D01*
X169471905Y-103643571D01*
X169376667Y-103572143D01*
X169138571Y-103572143D01*
X169043333Y-103500714D01*
X168186190Y-104072143D02*
X168281428Y-104143571D01*
X168471905Y-104143571D01*
X168567143Y-104072143D01*
X168614762Y-103929286D01*
X168614762Y-103357857D01*
X168567143Y-103215000D01*
X168471905Y-103143571D01*
X168281428Y-103143571D01*
X168186190Y-103215000D01*
X168138571Y-103357857D01*
X168138571Y-103500714D01*
X168614762Y-103643571D01*
X167805238Y-103143571D02*
X167567143Y-104143571D01*
X167329047Y-103143571D01*
X166519523Y-104143571D02*
X166519523Y-103357857D01*
X166567142Y-103215000D01*
X166662380Y-103143571D01*
X166852857Y-103143571D01*
X166948095Y-103215000D01*
X166519523Y-104072143D02*
X166614761Y-104143571D01*
X166852857Y-104143571D01*
X166948095Y-104072143D01*
X166995714Y-103929286D01*
X166995714Y-103786429D01*
X166948095Y-103643571D01*
X166852857Y-103572143D01*
X166614761Y-103572143D01*
X166519523Y-103500714D01*
X166043333Y-103143571D02*
X166043333Y-104143571D01*
X166043333Y-103286429D02*
X165995714Y-103215000D01*
X165900476Y-103143571D01*
X165757618Y-103143571D01*
X165662380Y-103215000D01*
X165614761Y-103357857D01*
X165614761Y-104143571D01*
X164186190Y-102643571D02*
X164090951Y-102643571D01*
X163995713Y-102715000D01*
X163948094Y-102786429D01*
X163900475Y-102929286D01*
X163852856Y-103215000D01*
X163852856Y-103572143D01*
X163900475Y-103857857D01*
X163948094Y-104000714D01*
X163995713Y-104072143D01*
X164090951Y-104143571D01*
X164186190Y-104143571D01*
X164281428Y-104072143D01*
X164329047Y-104000714D01*
X164376666Y-103857857D01*
X164424285Y-103572143D01*
X164424285Y-103215000D01*
X164376666Y-102929286D01*
X164329047Y-102786429D01*
X164281428Y-102715000D01*
X164186190Y-102643571D01*
X162900475Y-104143571D02*
X163471904Y-104143571D01*
X163186190Y-104143571D02*
X163186190Y-102643571D01*
X163281428Y-102857857D01*
X163376666Y-103000714D01*
X163471904Y-103072143D01*
X161757618Y-102572143D02*
X162614761Y-104500714D01*
X160900475Y-104143571D02*
X161471904Y-104143571D01*
X161186190Y-104143571D02*
X161186190Y-102643571D01*
X161281428Y-102857857D01*
X161376666Y-103000714D01*
X161471904Y-103072143D01*
X160424285Y-104143571D02*
X160233809Y-104143571D01*
X160138570Y-104072143D01*
X160090951Y-104000714D01*
X159995713Y-103786429D01*
X159948094Y-103500714D01*
X159948094Y-102929286D01*
X159995713Y-102786429D01*
X160043332Y-102715000D01*
X160138570Y-102643571D01*
X160329047Y-102643571D01*
X160424285Y-102715000D01*
X160471904Y-102786429D01*
X160519523Y-102929286D01*
X160519523Y-103286429D01*
X160471904Y-103429286D01*
X160424285Y-103500714D01*
X160329047Y-103572143D01*
X160138570Y-103572143D01*
X160043332Y-103500714D01*
X159995713Y-103429286D01*
X159948094Y-103286429D01*
X158805237Y-102572143D02*
X159662380Y-104500714D01*
X157948094Y-104143571D02*
X158519523Y-104143571D01*
X158233809Y-104143571D02*
X158233809Y-102643571D01*
X158329047Y-102857857D01*
X158424285Y-103000714D01*
X158519523Y-103072143D01*
X157090951Y-102643571D02*
X157281428Y-102643571D01*
X157376666Y-102715000D01*
X157424285Y-102786429D01*
X157519523Y-103000714D01*
X157567142Y-103286429D01*
X157567142Y-103857857D01*
X157519523Y-104000714D01*
X157471904Y-104072143D01*
X157376666Y-104143571D01*
X157186189Y-104143571D01*
X157090951Y-104072143D01*
X157043332Y-104000714D01*
X156995713Y-103857857D01*
X156995713Y-103500714D01*
X157043332Y-103357857D01*
X157090951Y-103286429D01*
X157186189Y-103215000D01*
X157376666Y-103215000D01*
X157471904Y-103286429D01*
X157519523Y-103357857D01*
X157567142Y-103500714D01*
D12*
X160704762Y-93866667D02*
X160752381Y-94009524D01*
X160752381Y-94247620D01*
X160704762Y-94342858D01*
X160657143Y-94390477D01*
X160561905Y-94438096D01*
X160466667Y-94438096D01*
X160371429Y-94390477D01*
X160323810Y-94342858D01*
X160276190Y-94247620D01*
X160228571Y-94057143D01*
X160180952Y-93961905D01*
X160133333Y-93914286D01*
X160038095Y-93866667D01*
X159942857Y-93866667D01*
X159847619Y-93914286D01*
X159800000Y-93961905D01*
X159752381Y-94057143D01*
X159752381Y-94295239D01*
X159800000Y-94438096D01*
X159752381Y-94771429D02*
X160752381Y-95009524D01*
X160038095Y-95200001D01*
X160752381Y-95390477D01*
X159752381Y-95628572D01*
X160752381Y-96533334D02*
X160752381Y-95961905D01*
X160752381Y-96247619D02*
X159752381Y-96247619D01*
X159895238Y-96152381D01*
X159990476Y-96057143D01*
X160038095Y-95961905D01*
X170468095Y-96632381D02*
X170468095Y-95632381D01*
X170087142Y-95632381D01*
X169991904Y-95680000D01*
X169944285Y-95727619D01*
X169896666Y-95822857D01*
X169896666Y-95965714D01*
X169944285Y-96060952D01*
X169991904Y-96108571D01*
X170087142Y-96156190D01*
X170468095Y-96156190D01*
X169039523Y-95632381D02*
X169230000Y-95632381D01*
X169325238Y-95680000D01*
X169372857Y-95727619D01*
X169468095Y-95870476D01*
X169515714Y-96060952D01*
X169515714Y-96441905D01*
X169468095Y-96537143D01*
X169420476Y-96584762D01*
X169325238Y-96632381D01*
X169134761Y-96632381D01*
X169039523Y-96584762D01*
X168991904Y-96537143D01*
X168944285Y-96441905D01*
X168944285Y-96203810D01*
X168991904Y-96108571D01*
X169039523Y-96060952D01*
X169134761Y-96013333D01*
X169325238Y-96013333D01*
X169420476Y-96060952D01*
X169468095Y-96108571D01*
X169515714Y-96203810D01*
M02*
