G04 #@! TF.FileFunction,Copper,L1,Top,Signal*
%FSLAX46Y46*%
G04 Gerber Fmt 4.6, Leading zero omitted, Abs format (unit mm)*
G04 Created by KiCad (PCBNEW (2015-11-17 BZR 6321)-product) date Tue 19 Jan 2016 02:12:06 PM EST*
%MOMM*%
G01*
G04 APERTURE LIST*
%ADD10C,0.100000*%
%ADD11R,0.800100X1.800860*%
%ADD12R,2.000000X2.500000*%
%ADD13R,1.600000X2.000000*%
%ADD14R,0.600000X1.000000*%
%ADD15R,1.700000X2.000000*%
%ADD16C,1.905000*%
%ADD17R,2.032000X2.032000*%
%ADD18O,2.032000X2.032000*%
%ADD19R,1.727200X1.727200*%
%ADD20O,1.727200X1.727200*%
%ADD21R,2.000000X1.700000*%
%ADD22R,0.700000X1.500000*%
%ADD23R,1.000000X0.800000*%
%ADD24R,1.000000X3.200000*%
%ADD25C,0.600000*%
%ADD26C,0.500000*%
%ADD27C,0.254000*%
G04 APERTURE END LIST*
D10*
D11*
X168600000Y-105600000D03*
X170500000Y-105600000D03*
X169550000Y-102597720D03*
D12*
X161250000Y-100250000D03*
X157250000Y-100250000D03*
D13*
X185014214Y-111867358D03*
X185014214Y-115867358D03*
D14*
X164025000Y-102555000D03*
X164025000Y-100045000D03*
X166475000Y-100045000D03*
X166475000Y-102555000D03*
D15*
X187764214Y-115867358D03*
X187764214Y-111867358D03*
D14*
X174500000Y-96255000D03*
X174500000Y-93745000D03*
D16*
X181000000Y-106620000D03*
X181000000Y-104080000D03*
X181000000Y-101540000D03*
X181000000Y-99000000D03*
X173380000Y-99000000D03*
X173380000Y-101540000D03*
X173380000Y-104080000D03*
X173380000Y-106620000D03*
D17*
X180500000Y-95000000D03*
D18*
X177960000Y-95000000D03*
D19*
X169560000Y-111000000D03*
D20*
X172100000Y-111000000D03*
X169560000Y-113540000D03*
X172100000Y-113540000D03*
X169560000Y-116080000D03*
X172100000Y-116080000D03*
D17*
X165600000Y-115058273D03*
D18*
X165600000Y-112518273D03*
D17*
X161700000Y-115058273D03*
D18*
X161700000Y-112518273D03*
D17*
X157750000Y-115058273D03*
D18*
X157750000Y-112518273D03*
D11*
X166175000Y-105523860D03*
X164275000Y-105523860D03*
X165225000Y-108526140D03*
D21*
X161250000Y-106250000D03*
X157250000Y-106250000D03*
X161250000Y-109000000D03*
X157250000Y-109000000D03*
X161250000Y-103500000D03*
X157250000Y-103500000D03*
X188200000Y-108600000D03*
X184200000Y-108600000D03*
D15*
X176200000Y-112200000D03*
X176200000Y-116200000D03*
D21*
X188200000Y-105700000D03*
X184200000Y-105700000D03*
D15*
X182264214Y-115867358D03*
X182264214Y-111867358D03*
D21*
X166500000Y-98000000D03*
X170500000Y-98000000D03*
D22*
X162500000Y-96750000D03*
X159500000Y-96750000D03*
X158000000Y-96750000D03*
D23*
X163900000Y-93900000D03*
X156600000Y-93900000D03*
X156600000Y-96100000D03*
X163900000Y-96100000D03*
D24*
X187600000Y-101300000D03*
X187600000Y-94500000D03*
X183600000Y-94500000D03*
X183600000Y-101300000D03*
D17*
X168460000Y-94500000D03*
D18*
X171000000Y-94500000D03*
D25*
X188000000Y-98000000D03*
X186000000Y-98000000D03*
X171000000Y-101000000D03*
X165000000Y-101000000D03*
X176000000Y-104000000D03*
X179400000Y-109500000D03*
X177800000Y-112400000D03*
X180400000Y-116000000D03*
X176200000Y-113999979D03*
X159300000Y-100100000D03*
X169500000Y-108236366D03*
X171613118Y-108162465D03*
X171000000Y-103800000D03*
X167400000Y-104200000D03*
X168588223Y-100181089D03*
X180026255Y-112934432D03*
X184800000Y-113667337D03*
X186780344Y-103219656D03*
X186300000Y-106400000D03*
X186500000Y-108500000D03*
X187800000Y-104000000D03*
X175400000Y-110100000D03*
X173413601Y-110369471D03*
X178464162Y-109375151D03*
X174690995Y-108420304D03*
X171316607Y-107179618D03*
X169799978Y-107200000D03*
X170562647Y-107486346D03*
X183065252Y-105595672D03*
X180730344Y-112230344D03*
X184800000Y-102200000D03*
X163200000Y-98700000D03*
D26*
X181000000Y-99000000D02*
X176000000Y-104000000D01*
X177800000Y-112400000D02*
X177800000Y-111100000D01*
X177800000Y-111100000D02*
X179400000Y-109500000D01*
X180400000Y-116000000D02*
X182131572Y-116000000D01*
X182131572Y-116000000D02*
X182264214Y-115867358D01*
X172100000Y-116080000D02*
X174180021Y-113999979D01*
X174180021Y-113999979D02*
X176200000Y-113999979D01*
X159300000Y-100100000D02*
X157400000Y-100100000D01*
X157400000Y-100100000D02*
X157250000Y-100250000D01*
X174500000Y-93745000D02*
X176705000Y-93745000D01*
X176705000Y-93745000D02*
X177960000Y-95000000D01*
X171000000Y-94500000D02*
X173745000Y-94500000D01*
X173745000Y-94500000D02*
X174500000Y-93745000D01*
X185014214Y-115867358D02*
X187764214Y-115867358D01*
X182264214Y-115867358D02*
X185014214Y-115867358D01*
X157250000Y-106250000D02*
X157250000Y-109000000D01*
X157250000Y-103500000D02*
X157250000Y-106250000D01*
X157250000Y-100250000D02*
X157250000Y-103500000D01*
X169500000Y-108236366D02*
X171539217Y-108236366D01*
X171539217Y-108236366D02*
X171613118Y-108162465D01*
X171000000Y-103800000D02*
X170575736Y-103800000D01*
X170575736Y-103800000D02*
X170126167Y-104249569D01*
X170126167Y-104249569D02*
X169450051Y-104249569D01*
X169450051Y-104249569D02*
X168600000Y-105099620D01*
X168600000Y-105099620D02*
X168600000Y-105600000D01*
X167400000Y-104200000D02*
X167400000Y-104400000D01*
X167400000Y-104400000D02*
X168600000Y-105600000D01*
X167400000Y-104200000D02*
X167400000Y-104298860D01*
X167400000Y-104298860D02*
X166175000Y-105523860D01*
X168452134Y-100045000D02*
X168588223Y-100181089D01*
X166475000Y-100045000D02*
X168452134Y-100045000D01*
X184800000Y-113667337D02*
X180759160Y-113667337D01*
X180759160Y-113667337D02*
X180326254Y-113234431D01*
X180326254Y-113234431D02*
X180026255Y-112934432D01*
X184800000Y-113667337D02*
X184800000Y-112081572D01*
X184800000Y-112081572D02*
X185014214Y-111867358D01*
X166475000Y-100045000D02*
X166475000Y-98025000D01*
X166475000Y-98025000D02*
X166500000Y-98000000D01*
X170500000Y-98000000D02*
X170500000Y-99350000D01*
X170500000Y-99350000D02*
X167295000Y-102555000D01*
X167295000Y-102555000D02*
X167275000Y-102555000D01*
X167275000Y-102555000D02*
X166475000Y-102555000D01*
X164025000Y-98275000D02*
X162500000Y-96750000D01*
X164025000Y-100045000D02*
X164025000Y-98275000D01*
X176200000Y-116200000D02*
X177550000Y-116200000D01*
X177550000Y-116200000D02*
X179332643Y-114417357D01*
X179332643Y-114417357D02*
X185364215Y-114417357D01*
X187764214Y-112017358D02*
X187764214Y-111867358D01*
X185364215Y-114417357D02*
X187764214Y-112017358D01*
X171977499Y-97977501D02*
X173700000Y-96255000D01*
X170512282Y-102597720D02*
X171977499Y-101132503D01*
X173700000Y-96255000D02*
X174500000Y-96255000D01*
X169550000Y-102597720D02*
X170512282Y-102597720D01*
X171977499Y-101132503D02*
X171977499Y-97977501D01*
X176145000Y-97100000D02*
X179916000Y-97100000D01*
X179916000Y-97100000D02*
X180500000Y-96516000D01*
X180500000Y-96516000D02*
X180500000Y-95000000D01*
X174500000Y-96255000D02*
X175300000Y-96255000D01*
X175300000Y-96255000D02*
X176145000Y-97100000D01*
X187249999Y-98849999D02*
X187600000Y-99200000D01*
X187249999Y-96950001D02*
X187249999Y-98849999D01*
X187600000Y-96600000D02*
X187249999Y-96950001D01*
X187600000Y-94500000D02*
X187600000Y-96600000D01*
X187600000Y-99200000D02*
X187600000Y-101300000D01*
X170423599Y-116943599D02*
X169560000Y-116080000D01*
X170873601Y-117393601D02*
X170423599Y-116943599D01*
X172730529Y-117393601D02*
X170873601Y-117393601D01*
X173413601Y-116710529D02*
X172730529Y-117393601D01*
X185042645Y-110417357D02*
X180892647Y-110417357D01*
X173413601Y-116326397D02*
X173413601Y-116710529D01*
X174989999Y-114749999D02*
X173413601Y-116326397D01*
X176560005Y-114749999D02*
X174989999Y-114749999D01*
X180892647Y-110417357D02*
X176560005Y-114749999D01*
X185650001Y-109810001D02*
X185042645Y-110417357D01*
X185650001Y-107389999D02*
X185650001Y-109810001D01*
X187080343Y-102919657D02*
X186780344Y-103219656D01*
X187600000Y-102400000D02*
X187080343Y-102919657D01*
X187600000Y-101300000D02*
X187600000Y-102400000D01*
X185650001Y-107389999D02*
X185650001Y-107049999D01*
X185650001Y-107049999D02*
X186300000Y-106400000D01*
X185560001Y-107299999D02*
X183027037Y-107299999D01*
X183027037Y-107299999D02*
X182347038Y-106620000D01*
X182347038Y-106620000D02*
X181000000Y-106620000D01*
X185650001Y-107389999D02*
X185560001Y-107299999D01*
X188200000Y-105700000D02*
X186700000Y-105700000D01*
X186700000Y-105700000D02*
X185080000Y-104080000D01*
X185080000Y-104080000D02*
X182347038Y-104080000D01*
X182347038Y-104080000D02*
X181000000Y-104080000D01*
X186500000Y-108500000D02*
X188100000Y-108500000D01*
X188100000Y-108500000D02*
X188200000Y-108600000D01*
X185850001Y-103350001D02*
X186500000Y-104000000D01*
X186500000Y-104000000D02*
X187800000Y-104000000D01*
X181000000Y-101540000D02*
X182810001Y-103350001D01*
X182810001Y-103350001D02*
X185850001Y-103350001D01*
X165600000Y-115058273D02*
X167066001Y-113592272D01*
X167066001Y-113592272D02*
X167066001Y-110956797D01*
X167066001Y-110956797D02*
X168336399Y-109686399D01*
X168336399Y-109686399D02*
X172730529Y-109686399D01*
X172730529Y-109686399D02*
X173413601Y-110369471D01*
X178464162Y-109375151D02*
X178114811Y-109375151D01*
X178114811Y-109375151D02*
X178089954Y-109400008D01*
X178089954Y-109400008D02*
X176099992Y-109400008D01*
X176099992Y-109400008D02*
X175400000Y-110100000D01*
X173413601Y-110369471D02*
X173413604Y-110369471D01*
X173413601Y-110369471D02*
X173413603Y-110369471D01*
X173413601Y-112226399D02*
X172963599Y-112676401D01*
X173413601Y-110369471D02*
X173413601Y-112226399D01*
X172963599Y-112676401D02*
X172100000Y-113540000D01*
X166900000Y-117200000D02*
X168246399Y-115853601D01*
X173380000Y-101540000D02*
X171977499Y-102942501D01*
X161700000Y-115058273D02*
X161700000Y-116574273D01*
X161700000Y-116574273D02*
X162325727Y-117200000D01*
X162325727Y-117200000D02*
X166900000Y-117200000D01*
X168246399Y-115853601D02*
X168246399Y-112313601D01*
X168246399Y-112313601D02*
X169560000Y-111000000D01*
X174990994Y-105690994D02*
X174990994Y-108120305D01*
X174990994Y-108120305D02*
X174690995Y-108420304D01*
X173380000Y-104080000D02*
X174990994Y-105690994D01*
X163100000Y-105200000D02*
X163100000Y-110018273D01*
X163100000Y-110018273D02*
X165600000Y-112518273D01*
X161250000Y-103500000D02*
X161400000Y-103500000D01*
X161400000Y-103500000D02*
X163100000Y-105200000D01*
X161250000Y-109000000D02*
X161250000Y-112068273D01*
X161250000Y-112068273D02*
X161700000Y-112518273D01*
X157750000Y-112518273D02*
X158765999Y-111502274D01*
X158765999Y-111502274D02*
X158765999Y-108584001D01*
X158765999Y-108584001D02*
X161100000Y-106250000D01*
X161100000Y-106250000D02*
X161250000Y-106250000D01*
X172847630Y-108286377D02*
X171740871Y-107179618D01*
X171740871Y-107179618D02*
X171316607Y-107179618D01*
X175621320Y-108600000D02*
X174940334Y-109280986D01*
X174940334Y-109280986D02*
X174450002Y-109280986D01*
X174450002Y-109280986D02*
X173455393Y-108286377D01*
X173455393Y-108286377D02*
X172847630Y-108286377D01*
X177900000Y-108600000D02*
X175621320Y-108600000D01*
X169375714Y-107200000D02*
X169799978Y-107200000D01*
X164275000Y-106024240D02*
X165426469Y-107175709D01*
X169351423Y-107175709D02*
X169375714Y-107200000D01*
X165426469Y-107175709D02*
X169351423Y-107175709D01*
X164275000Y-105523860D02*
X164275000Y-106024240D01*
X184200000Y-108600000D02*
X177900000Y-108600000D01*
X177900000Y-108600000D02*
X177800000Y-108700000D01*
X166125050Y-108526140D02*
X165225000Y-108526140D01*
X166585298Y-108986388D02*
X166125050Y-108526140D01*
X173136388Y-108986388D02*
X166585298Y-108986388D01*
X176200000Y-112050000D02*
X173136388Y-108986388D01*
X176200000Y-112200000D02*
X176200000Y-112050000D01*
X170562647Y-105662647D02*
X170562647Y-107062082D01*
X170562647Y-107062082D02*
X170562647Y-107486346D01*
X170500000Y-105600000D02*
X170562647Y-105662647D01*
X184200000Y-105700000D02*
X184095672Y-105595672D01*
X183489516Y-105595672D02*
X183065252Y-105595672D01*
X184095672Y-105595672D02*
X183489516Y-105595672D01*
X182264214Y-111867358D02*
X181093330Y-111867358D01*
X181030343Y-111930345D02*
X180730344Y-112230344D01*
X181093330Y-111867358D02*
X181030343Y-111930345D01*
X183600000Y-101300000D02*
X183900000Y-101300000D01*
X183900000Y-101300000D02*
X184800000Y-102200000D01*
X183600000Y-94500000D02*
X183600000Y-101300000D01*
X159500000Y-98500000D02*
X161250000Y-100250000D01*
X159500000Y-96750000D02*
X159500000Y-98500000D01*
X161250000Y-100250000D02*
X161650000Y-100250000D01*
X161650000Y-100250000D02*
X163200000Y-98700000D01*
D27*
G36*
X155848110Y-97096431D02*
X156100000Y-97147440D01*
X157002560Y-97147440D01*
X157002560Y-97500000D01*
X157046838Y-97735317D01*
X157185910Y-97951441D01*
X157398110Y-98096431D01*
X157650000Y-98147440D01*
X158350000Y-98147440D01*
X158585317Y-98103162D01*
X158615000Y-98084062D01*
X158615000Y-98466975D01*
X158609698Y-98461673D01*
X158376309Y-98365000D01*
X157535750Y-98365000D01*
X157377000Y-98523750D01*
X157377000Y-100123000D01*
X158726250Y-100123000D01*
X158885000Y-99964250D01*
X158885000Y-99136580D01*
X159602560Y-99854140D01*
X159602560Y-101500000D01*
X159646838Y-101735317D01*
X159785910Y-101951441D01*
X159968769Y-102076383D01*
X159798559Y-102185910D01*
X159653569Y-102398110D01*
X159602560Y-102650000D01*
X159602560Y-104350000D01*
X159646838Y-104585317D01*
X159785910Y-104801441D01*
X159893397Y-104874884D01*
X159798559Y-104935910D01*
X159653569Y-105148110D01*
X159602560Y-105400000D01*
X159602560Y-106495861D01*
X158885000Y-107213420D01*
X158885000Y-106535750D01*
X158726250Y-106377000D01*
X157377000Y-106377000D01*
X157377000Y-107576250D01*
X157425750Y-107625000D01*
X157377000Y-107673750D01*
X157377000Y-108873000D01*
X157397000Y-108873000D01*
X157397000Y-109127000D01*
X157377000Y-109127000D01*
X157377000Y-110326250D01*
X157535750Y-110485000D01*
X157880999Y-110485000D01*
X157880999Y-110886897D01*
X157782345Y-110867273D01*
X157717655Y-110867273D01*
X157085845Y-110992948D01*
X156550222Y-111350840D01*
X156192330Y-111886463D01*
X156066655Y-112518273D01*
X156192330Y-113150083D01*
X156419499Y-113490065D01*
X156282559Y-113578183D01*
X156137569Y-113790383D01*
X156086560Y-114042273D01*
X156086560Y-116074273D01*
X156130838Y-116309590D01*
X156269910Y-116525714D01*
X156482110Y-116670704D01*
X156734000Y-116721713D01*
X158766000Y-116721713D01*
X159001317Y-116677435D01*
X159217441Y-116538363D01*
X159362431Y-116326163D01*
X159413440Y-116074273D01*
X159413440Y-114042273D01*
X159369162Y-113806956D01*
X159230090Y-113590832D01*
X159081163Y-113489075D01*
X159307670Y-113150083D01*
X159433345Y-112518273D01*
X159361710Y-112158142D01*
X159391786Y-112128066D01*
X159391789Y-112128064D01*
X159549742Y-111891670D01*
X159583633Y-111840948D01*
X159651000Y-111502274D01*
X159650999Y-111502269D01*
X159650999Y-110091783D01*
X159785910Y-110301441D01*
X159998110Y-110446431D01*
X160250000Y-110497440D01*
X160365000Y-110497440D01*
X160365000Y-111553214D01*
X160142330Y-111886463D01*
X160016655Y-112518273D01*
X160142330Y-113150083D01*
X160369499Y-113490065D01*
X160232559Y-113578183D01*
X160087569Y-113790383D01*
X160036560Y-114042273D01*
X160036560Y-116074273D01*
X160080838Y-116309590D01*
X160219910Y-116525714D01*
X160432110Y-116670704D01*
X160684000Y-116721713D01*
X160844327Y-116721713D01*
X160864648Y-116823870D01*
X160882367Y-116912948D01*
X161033857Y-117139670D01*
X161074210Y-117200063D01*
X161164147Y-117290000D01*
X157069931Y-117290000D01*
X156511660Y-117178953D01*
X156097669Y-116902333D01*
X155821046Y-116488338D01*
X155710000Y-115930069D01*
X155710000Y-110205660D01*
X155711673Y-110209699D01*
X155890302Y-110388327D01*
X156123691Y-110485000D01*
X156964250Y-110485000D01*
X157123000Y-110326250D01*
X157123000Y-109127000D01*
X157103000Y-109127000D01*
X157103000Y-108873000D01*
X157123000Y-108873000D01*
X157123000Y-107673750D01*
X157074250Y-107625000D01*
X157123000Y-107576250D01*
X157123000Y-106377000D01*
X157103000Y-106377000D01*
X157103000Y-106123000D01*
X157123000Y-106123000D01*
X157123000Y-104923750D01*
X157074250Y-104875000D01*
X157123000Y-104826250D01*
X157123000Y-103627000D01*
X157377000Y-103627000D01*
X157377000Y-104826250D01*
X157425750Y-104875000D01*
X157377000Y-104923750D01*
X157377000Y-106123000D01*
X158726250Y-106123000D01*
X158885000Y-105964250D01*
X158885000Y-105273690D01*
X158788327Y-105040301D01*
X158623025Y-104875000D01*
X158788327Y-104709699D01*
X158885000Y-104476310D01*
X158885000Y-103785750D01*
X158726250Y-103627000D01*
X157377000Y-103627000D01*
X157123000Y-103627000D01*
X157103000Y-103627000D01*
X157103000Y-103373000D01*
X157123000Y-103373000D01*
X157123000Y-102173750D01*
X157024250Y-102075000D01*
X157123000Y-101976250D01*
X157123000Y-100377000D01*
X157377000Y-100377000D01*
X157377000Y-101976250D01*
X157475750Y-102075000D01*
X157377000Y-102173750D01*
X157377000Y-103373000D01*
X158726250Y-103373000D01*
X158885000Y-103214250D01*
X158885000Y-102523690D01*
X158788327Y-102290301D01*
X158609698Y-102111673D01*
X158521162Y-102075000D01*
X158609698Y-102038327D01*
X158788327Y-101859699D01*
X158885000Y-101626310D01*
X158885000Y-100535750D01*
X158726250Y-100377000D01*
X157377000Y-100377000D01*
X157123000Y-100377000D01*
X157103000Y-100377000D01*
X157103000Y-100123000D01*
X157123000Y-100123000D01*
X157123000Y-98523750D01*
X156964250Y-98365000D01*
X156123691Y-98365000D01*
X155890302Y-98461673D01*
X155711673Y-98640301D01*
X155710000Y-98644340D01*
X155710000Y-97002065D01*
X155848110Y-97096431D01*
X155848110Y-97096431D01*
G37*
X155848110Y-97096431D02*
X156100000Y-97147440D01*
X157002560Y-97147440D01*
X157002560Y-97500000D01*
X157046838Y-97735317D01*
X157185910Y-97951441D01*
X157398110Y-98096431D01*
X157650000Y-98147440D01*
X158350000Y-98147440D01*
X158585317Y-98103162D01*
X158615000Y-98084062D01*
X158615000Y-98466975D01*
X158609698Y-98461673D01*
X158376309Y-98365000D01*
X157535750Y-98365000D01*
X157377000Y-98523750D01*
X157377000Y-100123000D01*
X158726250Y-100123000D01*
X158885000Y-99964250D01*
X158885000Y-99136580D01*
X159602560Y-99854140D01*
X159602560Y-101500000D01*
X159646838Y-101735317D01*
X159785910Y-101951441D01*
X159968769Y-102076383D01*
X159798559Y-102185910D01*
X159653569Y-102398110D01*
X159602560Y-102650000D01*
X159602560Y-104350000D01*
X159646838Y-104585317D01*
X159785910Y-104801441D01*
X159893397Y-104874884D01*
X159798559Y-104935910D01*
X159653569Y-105148110D01*
X159602560Y-105400000D01*
X159602560Y-106495861D01*
X158885000Y-107213420D01*
X158885000Y-106535750D01*
X158726250Y-106377000D01*
X157377000Y-106377000D01*
X157377000Y-107576250D01*
X157425750Y-107625000D01*
X157377000Y-107673750D01*
X157377000Y-108873000D01*
X157397000Y-108873000D01*
X157397000Y-109127000D01*
X157377000Y-109127000D01*
X157377000Y-110326250D01*
X157535750Y-110485000D01*
X157880999Y-110485000D01*
X157880999Y-110886897D01*
X157782345Y-110867273D01*
X157717655Y-110867273D01*
X157085845Y-110992948D01*
X156550222Y-111350840D01*
X156192330Y-111886463D01*
X156066655Y-112518273D01*
X156192330Y-113150083D01*
X156419499Y-113490065D01*
X156282559Y-113578183D01*
X156137569Y-113790383D01*
X156086560Y-114042273D01*
X156086560Y-116074273D01*
X156130838Y-116309590D01*
X156269910Y-116525714D01*
X156482110Y-116670704D01*
X156734000Y-116721713D01*
X158766000Y-116721713D01*
X159001317Y-116677435D01*
X159217441Y-116538363D01*
X159362431Y-116326163D01*
X159413440Y-116074273D01*
X159413440Y-114042273D01*
X159369162Y-113806956D01*
X159230090Y-113590832D01*
X159081163Y-113489075D01*
X159307670Y-113150083D01*
X159433345Y-112518273D01*
X159361710Y-112158142D01*
X159391786Y-112128066D01*
X159391789Y-112128064D01*
X159549742Y-111891670D01*
X159583633Y-111840948D01*
X159651000Y-111502274D01*
X159650999Y-111502269D01*
X159650999Y-110091783D01*
X159785910Y-110301441D01*
X159998110Y-110446431D01*
X160250000Y-110497440D01*
X160365000Y-110497440D01*
X160365000Y-111553214D01*
X160142330Y-111886463D01*
X160016655Y-112518273D01*
X160142330Y-113150083D01*
X160369499Y-113490065D01*
X160232559Y-113578183D01*
X160087569Y-113790383D01*
X160036560Y-114042273D01*
X160036560Y-116074273D01*
X160080838Y-116309590D01*
X160219910Y-116525714D01*
X160432110Y-116670704D01*
X160684000Y-116721713D01*
X160844327Y-116721713D01*
X160864648Y-116823870D01*
X160882367Y-116912948D01*
X161033857Y-117139670D01*
X161074210Y-117200063D01*
X161164147Y-117290000D01*
X157069931Y-117290000D01*
X156511660Y-117178953D01*
X156097669Y-116902333D01*
X155821046Y-116488338D01*
X155710000Y-115930069D01*
X155710000Y-110205660D01*
X155711673Y-110209699D01*
X155890302Y-110388327D01*
X156123691Y-110485000D01*
X156964250Y-110485000D01*
X157123000Y-110326250D01*
X157123000Y-109127000D01*
X157103000Y-109127000D01*
X157103000Y-108873000D01*
X157123000Y-108873000D01*
X157123000Y-107673750D01*
X157074250Y-107625000D01*
X157123000Y-107576250D01*
X157123000Y-106377000D01*
X157103000Y-106377000D01*
X157103000Y-106123000D01*
X157123000Y-106123000D01*
X157123000Y-104923750D01*
X157074250Y-104875000D01*
X157123000Y-104826250D01*
X157123000Y-103627000D01*
X157377000Y-103627000D01*
X157377000Y-104826250D01*
X157425750Y-104875000D01*
X157377000Y-104923750D01*
X157377000Y-106123000D01*
X158726250Y-106123000D01*
X158885000Y-105964250D01*
X158885000Y-105273690D01*
X158788327Y-105040301D01*
X158623025Y-104875000D01*
X158788327Y-104709699D01*
X158885000Y-104476310D01*
X158885000Y-103785750D01*
X158726250Y-103627000D01*
X157377000Y-103627000D01*
X157123000Y-103627000D01*
X157103000Y-103627000D01*
X157103000Y-103373000D01*
X157123000Y-103373000D01*
X157123000Y-102173750D01*
X157024250Y-102075000D01*
X157123000Y-101976250D01*
X157123000Y-100377000D01*
X157377000Y-100377000D01*
X157377000Y-101976250D01*
X157475750Y-102075000D01*
X157377000Y-102173750D01*
X157377000Y-103373000D01*
X158726250Y-103373000D01*
X158885000Y-103214250D01*
X158885000Y-102523690D01*
X158788327Y-102290301D01*
X158609698Y-102111673D01*
X158521162Y-102075000D01*
X158609698Y-102038327D01*
X158788327Y-101859699D01*
X158885000Y-101626310D01*
X158885000Y-100535750D01*
X158726250Y-100377000D01*
X157377000Y-100377000D01*
X157123000Y-100377000D01*
X157103000Y-100377000D01*
X157103000Y-100123000D01*
X157123000Y-100123000D01*
X157123000Y-98523750D01*
X156964250Y-98365000D01*
X156123691Y-98365000D01*
X155890302Y-98461673D01*
X155711673Y-98640301D01*
X155710000Y-98644340D01*
X155710000Y-97002065D01*
X155848110Y-97096431D01*
G36*
X186552560Y-109435046D02*
X186552560Y-109450000D01*
X186596838Y-109685317D01*
X186735910Y-109901441D01*
X186948110Y-110046431D01*
X187200000Y-110097440D01*
X189200000Y-110097440D01*
X189290000Y-110080505D01*
X189290000Y-115930069D01*
X189246229Y-116150123D01*
X189090464Y-115994358D01*
X187891214Y-115994358D01*
X187891214Y-116014358D01*
X187637214Y-116014358D01*
X187637214Y-115994358D01*
X186437964Y-115994358D01*
X186364214Y-116068108D01*
X186290464Y-115994358D01*
X185141214Y-115994358D01*
X185141214Y-116014358D01*
X184887214Y-116014358D01*
X184887214Y-115994358D01*
X183737964Y-115994358D01*
X183664214Y-116068108D01*
X183590464Y-115994358D01*
X182391214Y-115994358D01*
X182391214Y-116014358D01*
X182137214Y-116014358D01*
X182137214Y-115994358D01*
X180937964Y-115994358D01*
X180779214Y-116153108D01*
X180779214Y-116993667D01*
X180875887Y-117227056D01*
X180938831Y-117290000D01*
X177679215Y-117290000D01*
X177697440Y-117200000D01*
X177697440Y-117055673D01*
X177832484Y-117028810D01*
X177888675Y-117017633D01*
X178175790Y-116825790D01*
X179699222Y-115302357D01*
X180779214Y-115302357D01*
X180779214Y-115581608D01*
X180937964Y-115740358D01*
X182137214Y-115740358D01*
X182137214Y-115720358D01*
X182391214Y-115720358D01*
X182391214Y-115740358D01*
X183590464Y-115740358D01*
X183664214Y-115666608D01*
X183737964Y-115740358D01*
X184887214Y-115740358D01*
X184887214Y-115720358D01*
X185141214Y-115720358D01*
X185141214Y-115740358D01*
X186290464Y-115740358D01*
X186364214Y-115666608D01*
X186437964Y-115740358D01*
X187637214Y-115740358D01*
X187637214Y-114391108D01*
X187891214Y-114391108D01*
X187891214Y-115740358D01*
X189090464Y-115740358D01*
X189249214Y-115581608D01*
X189249214Y-114741049D01*
X189152541Y-114507660D01*
X188973913Y-114329031D01*
X188740524Y-114232358D01*
X188049964Y-114232358D01*
X187891214Y-114391108D01*
X187637214Y-114391108D01*
X187478464Y-114232358D01*
X186800794Y-114232358D01*
X187518353Y-113514798D01*
X188614214Y-113514798D01*
X188849531Y-113470520D01*
X189065655Y-113331448D01*
X189210645Y-113119248D01*
X189261654Y-112867358D01*
X189261654Y-110867358D01*
X189217376Y-110632041D01*
X189078304Y-110415917D01*
X188866104Y-110270927D01*
X188614214Y-110219918D01*
X186914214Y-110219918D01*
X186678897Y-110264196D01*
X186462773Y-110403268D01*
X186363581Y-110548441D01*
X186283586Y-110424125D01*
X186467634Y-110148676D01*
X186474333Y-110115000D01*
X186535002Y-109810001D01*
X186535001Y-109809996D01*
X186535001Y-109435031D01*
X186552560Y-109435046D01*
X186552560Y-109435046D01*
G37*
X186552560Y-109435046D02*
X186552560Y-109450000D01*
X186596838Y-109685317D01*
X186735910Y-109901441D01*
X186948110Y-110046431D01*
X187200000Y-110097440D01*
X189200000Y-110097440D01*
X189290000Y-110080505D01*
X189290000Y-115930069D01*
X189246229Y-116150123D01*
X189090464Y-115994358D01*
X187891214Y-115994358D01*
X187891214Y-116014358D01*
X187637214Y-116014358D01*
X187637214Y-115994358D01*
X186437964Y-115994358D01*
X186364214Y-116068108D01*
X186290464Y-115994358D01*
X185141214Y-115994358D01*
X185141214Y-116014358D01*
X184887214Y-116014358D01*
X184887214Y-115994358D01*
X183737964Y-115994358D01*
X183664214Y-116068108D01*
X183590464Y-115994358D01*
X182391214Y-115994358D01*
X182391214Y-116014358D01*
X182137214Y-116014358D01*
X182137214Y-115994358D01*
X180937964Y-115994358D01*
X180779214Y-116153108D01*
X180779214Y-116993667D01*
X180875887Y-117227056D01*
X180938831Y-117290000D01*
X177679215Y-117290000D01*
X177697440Y-117200000D01*
X177697440Y-117055673D01*
X177832484Y-117028810D01*
X177888675Y-117017633D01*
X178175790Y-116825790D01*
X179699222Y-115302357D01*
X180779214Y-115302357D01*
X180779214Y-115581608D01*
X180937964Y-115740358D01*
X182137214Y-115740358D01*
X182137214Y-115720358D01*
X182391214Y-115720358D01*
X182391214Y-115740358D01*
X183590464Y-115740358D01*
X183664214Y-115666608D01*
X183737964Y-115740358D01*
X184887214Y-115740358D01*
X184887214Y-115720358D01*
X185141214Y-115720358D01*
X185141214Y-115740358D01*
X186290464Y-115740358D01*
X186364214Y-115666608D01*
X186437964Y-115740358D01*
X187637214Y-115740358D01*
X187637214Y-114391108D01*
X187891214Y-114391108D01*
X187891214Y-115740358D01*
X189090464Y-115740358D01*
X189249214Y-115581608D01*
X189249214Y-114741049D01*
X189152541Y-114507660D01*
X188973913Y-114329031D01*
X188740524Y-114232358D01*
X188049964Y-114232358D01*
X187891214Y-114391108D01*
X187637214Y-114391108D01*
X187478464Y-114232358D01*
X186800794Y-114232358D01*
X187518353Y-113514798D01*
X188614214Y-113514798D01*
X188849531Y-113470520D01*
X189065655Y-113331448D01*
X189210645Y-113119248D01*
X189261654Y-112867358D01*
X189261654Y-110867358D01*
X189217376Y-110632041D01*
X189078304Y-110415917D01*
X188866104Y-110270927D01*
X188614214Y-110219918D01*
X186914214Y-110219918D01*
X186678897Y-110264196D01*
X186462773Y-110403268D01*
X186363581Y-110548441D01*
X186283586Y-110424125D01*
X186467634Y-110148676D01*
X186474333Y-110115000D01*
X186535002Y-109810001D01*
X186535001Y-109809996D01*
X186535001Y-109435031D01*
X186552560Y-109435046D01*
G36*
X172227000Y-115953000D02*
X172247000Y-115953000D01*
X172247000Y-116207000D01*
X172227000Y-116207000D01*
X172227000Y-116227000D01*
X171973000Y-116227000D01*
X171973000Y-116207000D01*
X171953000Y-116207000D01*
X171953000Y-115953000D01*
X171973000Y-115953000D01*
X171973000Y-115933000D01*
X172227000Y-115933000D01*
X172227000Y-115953000D01*
X172227000Y-115953000D01*
G37*
X172227000Y-115953000D02*
X172247000Y-115953000D01*
X172247000Y-116207000D01*
X172227000Y-116207000D01*
X172227000Y-116227000D01*
X171973000Y-116227000D01*
X171973000Y-116207000D01*
X171953000Y-116207000D01*
X171953000Y-115953000D01*
X171973000Y-115953000D01*
X171973000Y-115933000D01*
X172227000Y-115933000D01*
X172227000Y-115953000D01*
G36*
X174702560Y-111804139D02*
X174702560Y-113200000D01*
X174746838Y-113435317D01*
X174885910Y-113651441D01*
X175098110Y-113796431D01*
X175350000Y-113847440D01*
X176210984Y-113847440D01*
X176193425Y-113864999D01*
X174989999Y-113864999D01*
X174651324Y-113932366D01*
X174364209Y-114124209D01*
X174364207Y-114124212D01*
X173287572Y-115200846D01*
X172988490Y-114873179D01*
X172865772Y-114815664D01*
X173189029Y-114599670D01*
X173513885Y-114113489D01*
X173627959Y-113540000D01*
X173582105Y-113309474D01*
X173589386Y-113302193D01*
X173589389Y-113302191D01*
X174039388Y-112852191D01*
X174039391Y-112852189D01*
X174231234Y-112565074D01*
X174250790Y-112466762D01*
X174298602Y-112226399D01*
X174298601Y-112226394D01*
X174298601Y-111400180D01*
X174702560Y-111804139D01*
X174702560Y-111804139D01*
G37*
X174702560Y-111804139D02*
X174702560Y-113200000D01*
X174746838Y-113435317D01*
X174885910Y-113651441D01*
X175098110Y-113796431D01*
X175350000Y-113847440D01*
X176210984Y-113847440D01*
X176193425Y-113864999D01*
X174989999Y-113864999D01*
X174651324Y-113932366D01*
X174364209Y-114124209D01*
X174364207Y-114124212D01*
X173287572Y-115200846D01*
X172988490Y-114873179D01*
X172865772Y-114815664D01*
X173189029Y-114599670D01*
X173513885Y-114113489D01*
X173627959Y-113540000D01*
X173582105Y-113309474D01*
X173589386Y-113302193D01*
X173589389Y-113302191D01*
X174039388Y-112852191D01*
X174039391Y-112852189D01*
X174231234Y-112565074D01*
X174250790Y-112466762D01*
X174298602Y-112226399D01*
X174298601Y-112226394D01*
X174298601Y-111400180D01*
X174702560Y-111804139D01*
G36*
X182568057Y-109532357D02*
X180892652Y-109532357D01*
X180892647Y-109532356D01*
X180553972Y-109599724D01*
X180266857Y-109791567D01*
X180266855Y-109791570D01*
X177697440Y-112360984D01*
X177697440Y-111200000D01*
X177653162Y-110964683D01*
X177514090Y-110748559D01*
X177301890Y-110603569D01*
X177050000Y-110552560D01*
X176224484Y-110552560D01*
X176242566Y-110509014D01*
X176466571Y-110285008D01*
X178089949Y-110285008D01*
X178089954Y-110285009D01*
X178175990Y-110267895D01*
X178277363Y-110309989D01*
X178649329Y-110310313D01*
X178993105Y-110168268D01*
X179256354Y-109905478D01*
X179399000Y-109561950D01*
X179399067Y-109485000D01*
X182559146Y-109485000D01*
X182568057Y-109532357D01*
X182568057Y-109532357D01*
G37*
X182568057Y-109532357D02*
X180892652Y-109532357D01*
X180892647Y-109532356D01*
X180553972Y-109599724D01*
X180266857Y-109791567D01*
X180266855Y-109791570D01*
X177697440Y-112360984D01*
X177697440Y-111200000D01*
X177653162Y-110964683D01*
X177514090Y-110748559D01*
X177301890Y-110603569D01*
X177050000Y-110552560D01*
X176224484Y-110552560D01*
X176242566Y-110509014D01*
X176466571Y-110285008D01*
X178089949Y-110285008D01*
X178089954Y-110285009D01*
X178175990Y-110267895D01*
X178277363Y-110309989D01*
X178649329Y-110310313D01*
X178993105Y-110168268D01*
X179256354Y-109905478D01*
X179399000Y-109561950D01*
X179399067Y-109485000D01*
X182559146Y-109485000D01*
X182568057Y-109532357D01*
G36*
X173661673Y-92885302D02*
X173565000Y-93118691D01*
X173565000Y-93459250D01*
X173723750Y-93618000D01*
X174373000Y-93618000D01*
X174373000Y-93598000D01*
X174627000Y-93598000D01*
X174627000Y-93618000D01*
X175276250Y-93618000D01*
X175435000Y-93459250D01*
X175435000Y-93118691D01*
X175338327Y-92885302D01*
X175163026Y-92710000D01*
X182491036Y-92710000D01*
X182452560Y-92900000D01*
X182452560Y-96100000D01*
X182496838Y-96335317D01*
X182635910Y-96551441D01*
X182715000Y-96605481D01*
X182715000Y-99193156D01*
X182648559Y-99235910D01*
X182553996Y-99374307D01*
X182598675Y-99253199D01*
X182573878Y-98622139D01*
X182380088Y-98154288D01*
X182118159Y-98061446D01*
X181179605Y-99000000D01*
X182118159Y-99938554D01*
X182380088Y-99845712D01*
X182475336Y-99587527D01*
X182452560Y-99700000D01*
X182452560Y-100898366D01*
X182346602Y-100641928D01*
X181908471Y-100203032D01*
X181938554Y-100118159D01*
X181000000Y-99179605D01*
X180061446Y-100118159D01*
X180091725Y-100203583D01*
X179654968Y-100639579D01*
X179412776Y-101222841D01*
X179412225Y-101854388D01*
X179653398Y-102438072D01*
X180024935Y-102810257D01*
X179654968Y-103179579D01*
X179412776Y-103762841D01*
X179412225Y-104394388D01*
X179653398Y-104978072D01*
X180024935Y-105350257D01*
X179654968Y-105719579D01*
X179412776Y-106302841D01*
X179412225Y-106934388D01*
X179653398Y-107518072D01*
X179849983Y-107715000D01*
X175875994Y-107715000D01*
X175875994Y-105690999D01*
X175875995Y-105690994D01*
X175808628Y-105352320D01*
X175683253Y-105164683D01*
X175616784Y-105065204D01*
X175616781Y-105065202D01*
X174961800Y-104410221D01*
X174967224Y-104397159D01*
X174967775Y-103765612D01*
X174726602Y-103181928D01*
X174355065Y-102809743D01*
X174725032Y-102440421D01*
X174967224Y-101857159D01*
X174967775Y-101225612D01*
X174726602Y-100641928D01*
X174355065Y-100269743D01*
X174725032Y-99900421D01*
X174967224Y-99317159D01*
X174967775Y-98685612D01*
X174726602Y-98101928D01*
X174280421Y-97654968D01*
X173765447Y-97441132D01*
X173892883Y-97313696D01*
X173948110Y-97351431D01*
X174200000Y-97402440D01*
X174800000Y-97402440D01*
X175035317Y-97358162D01*
X175106060Y-97312640D01*
X175519208Y-97725787D01*
X175519210Y-97725790D01*
X175806325Y-97917633D01*
X176145000Y-97985000D01*
X179805392Y-97985000D01*
X179881839Y-98061447D01*
X179619912Y-98154288D01*
X179401325Y-98746801D01*
X179426122Y-99377861D01*
X179619912Y-99845712D01*
X179881841Y-99938554D01*
X180820395Y-99000000D01*
X180806253Y-98985858D01*
X180985858Y-98806253D01*
X181000000Y-98820395D01*
X181938554Y-97881841D01*
X181845712Y-97619912D01*
X181253199Y-97401325D01*
X180850428Y-97417152D01*
X181125787Y-97141792D01*
X181125790Y-97141790D01*
X181317633Y-96854675D01*
X181338454Y-96750000D01*
X181355673Y-96663440D01*
X181516000Y-96663440D01*
X181751317Y-96619162D01*
X181967441Y-96480090D01*
X182112431Y-96267890D01*
X182163440Y-96016000D01*
X182163440Y-93984000D01*
X182119162Y-93748683D01*
X181980090Y-93532559D01*
X181767890Y-93387569D01*
X181516000Y-93336560D01*
X179484000Y-93336560D01*
X179248683Y-93380838D01*
X179032559Y-93519910D01*
X178921160Y-93682948D01*
X178824818Y-93593615D01*
X178342944Y-93394025D01*
X178087000Y-93513164D01*
X178087000Y-94873000D01*
X178107000Y-94873000D01*
X178107000Y-95127000D01*
X178087000Y-95127000D01*
X178087000Y-95147000D01*
X177833000Y-95147000D01*
X177833000Y-95127000D01*
X176472633Y-95127000D01*
X176354017Y-95382946D01*
X176622812Y-95968379D01*
X176888782Y-96215000D01*
X176511579Y-96215000D01*
X175925790Y-95629210D01*
X175902727Y-95613800D01*
X175638675Y-95437367D01*
X175582484Y-95426190D01*
X175307847Y-95371560D01*
X175264090Y-95303559D01*
X175051890Y-95158569D01*
X174800000Y-95107560D01*
X174200000Y-95107560D01*
X173964683Y-95151838D01*
X173748559Y-95290910D01*
X173693658Y-95371261D01*
X173361325Y-95437367D01*
X173074210Y-95629210D01*
X173074208Y-95629213D01*
X171980053Y-96723367D01*
X171964090Y-96698559D01*
X171751890Y-96553569D01*
X171500000Y-96502560D01*
X169500000Y-96502560D01*
X169264683Y-96546838D01*
X169048559Y-96685910D01*
X168903569Y-96898110D01*
X168852560Y-97150000D01*
X168852560Y-98850000D01*
X168896838Y-99085317D01*
X169035910Y-99301441D01*
X169191007Y-99407414D01*
X169163997Y-99434424D01*
X169118550Y-99388897D01*
X168891385Y-99294569D01*
X168790809Y-99227367D01*
X168734618Y-99216190D01*
X168452134Y-99159999D01*
X168452129Y-99160000D01*
X168056726Y-99160000D01*
X168096431Y-99101890D01*
X168147440Y-98850000D01*
X168147440Y-97150000D01*
X168103162Y-96914683D01*
X167964090Y-96698559D01*
X167751890Y-96553569D01*
X167500000Y-96502560D01*
X165500000Y-96502560D01*
X165264683Y-96546838D01*
X165048559Y-96685910D01*
X164903569Y-96898110D01*
X164852560Y-97150000D01*
X164852560Y-97986231D01*
X164842633Y-97936326D01*
X164842633Y-97936325D01*
X164650790Y-97649210D01*
X164650787Y-97649208D01*
X164149019Y-97147440D01*
X164400000Y-97147440D01*
X164635317Y-97103162D01*
X164851441Y-96964090D01*
X164996431Y-96751890D01*
X165047440Y-96500000D01*
X165047440Y-95700000D01*
X165003162Y-95464683D01*
X164864090Y-95248559D01*
X164651890Y-95103569D01*
X164400000Y-95052560D01*
X163400000Y-95052560D01*
X163164683Y-95096838D01*
X162948559Y-95235910D01*
X162866564Y-95355914D01*
X162850000Y-95352560D01*
X162778425Y-95352560D01*
X162834811Y-95216767D01*
X162835188Y-94785127D01*
X162670354Y-94386200D01*
X162365405Y-94080718D01*
X161966767Y-93915189D01*
X161535127Y-93914812D01*
X161136200Y-94079646D01*
X160830718Y-94384595D01*
X160665189Y-94783233D01*
X160664812Y-95214873D01*
X160829646Y-95613800D01*
X161134595Y-95919282D01*
X161502560Y-96072074D01*
X161502560Y-97500000D01*
X161546838Y-97735317D01*
X161685910Y-97951441D01*
X161898110Y-98096431D01*
X162150000Y-98147440D01*
X162430080Y-98147440D01*
X162407808Y-98169673D01*
X162357434Y-98290987D01*
X162288138Y-98360283D01*
X162250000Y-98352560D01*
X160604140Y-98352560D01*
X160385000Y-98133420D01*
X160385000Y-97841797D01*
X160446431Y-97751890D01*
X160497440Y-97500000D01*
X160497440Y-96000000D01*
X160453162Y-95764683D01*
X160314090Y-95548559D01*
X160101890Y-95403569D01*
X159850000Y-95352560D01*
X159778425Y-95352560D01*
X159834811Y-95216767D01*
X159835188Y-94785127D01*
X159670354Y-94386200D01*
X159365405Y-94080718D01*
X158966767Y-93915189D01*
X158535127Y-93914812D01*
X158136200Y-94079646D01*
X157830718Y-94384595D01*
X157665189Y-94783233D01*
X157664812Y-95214873D01*
X157721703Y-95352560D01*
X157650000Y-95352560D01*
X157633063Y-95355747D01*
X157564090Y-95248559D01*
X157351890Y-95103569D01*
X157100000Y-95052560D01*
X156100000Y-95052560D01*
X155864683Y-95096838D01*
X155710000Y-95196374D01*
X155710000Y-94802065D01*
X155848110Y-94896431D01*
X156100000Y-94947440D01*
X157100000Y-94947440D01*
X157335317Y-94903162D01*
X157551441Y-94764090D01*
X157696431Y-94551890D01*
X157747440Y-94300000D01*
X157747440Y-93500000D01*
X162752560Y-93500000D01*
X162752560Y-94300000D01*
X162796838Y-94535317D01*
X162935910Y-94751441D01*
X163148110Y-94896431D01*
X163400000Y-94947440D01*
X164400000Y-94947440D01*
X164635317Y-94903162D01*
X164851441Y-94764090D01*
X164996431Y-94551890D01*
X165047440Y-94300000D01*
X165047440Y-93500000D01*
X165044430Y-93484000D01*
X166796560Y-93484000D01*
X166796560Y-95516000D01*
X166840838Y-95751317D01*
X166979910Y-95967441D01*
X167192110Y-96112431D01*
X167444000Y-96163440D01*
X169476000Y-96163440D01*
X169711317Y-96119162D01*
X169927441Y-95980090D01*
X170038840Y-95817052D01*
X170135182Y-95906385D01*
X170617056Y-96105975D01*
X170873000Y-95986836D01*
X170873000Y-94627000D01*
X171127000Y-94627000D01*
X171127000Y-95986836D01*
X171382944Y-96105975D01*
X171864818Y-95906385D01*
X172337188Y-95468379D01*
X172605983Y-94882946D01*
X172487367Y-94627000D01*
X171127000Y-94627000D01*
X170873000Y-94627000D01*
X170853000Y-94627000D01*
X170853000Y-94373000D01*
X170873000Y-94373000D01*
X170873000Y-93013164D01*
X171127000Y-93013164D01*
X171127000Y-94373000D01*
X172487367Y-94373000D01*
X172605983Y-94117054D01*
X172566358Y-94030750D01*
X173565000Y-94030750D01*
X173565000Y-94371309D01*
X173661673Y-94604698D01*
X173840301Y-94783327D01*
X174073690Y-94880000D01*
X174214250Y-94880000D01*
X174373000Y-94721250D01*
X174373000Y-93872000D01*
X174627000Y-93872000D01*
X174627000Y-94721250D01*
X174785750Y-94880000D01*
X174926310Y-94880000D01*
X175159699Y-94783327D01*
X175325971Y-94617054D01*
X176354017Y-94617054D01*
X176472633Y-94873000D01*
X177833000Y-94873000D01*
X177833000Y-93513164D01*
X177577056Y-93394025D01*
X177095182Y-93593615D01*
X176622812Y-94031621D01*
X176354017Y-94617054D01*
X175325971Y-94617054D01*
X175338327Y-94604698D01*
X175435000Y-94371309D01*
X175435000Y-94030750D01*
X175276250Y-93872000D01*
X174627000Y-93872000D01*
X174373000Y-93872000D01*
X173723750Y-93872000D01*
X173565000Y-94030750D01*
X172566358Y-94030750D01*
X172337188Y-93531621D01*
X171864818Y-93093615D01*
X171382944Y-92894025D01*
X171127000Y-93013164D01*
X170873000Y-93013164D01*
X170617056Y-92894025D01*
X170135182Y-93093615D01*
X170037602Y-93184097D01*
X169940090Y-93032559D01*
X169727890Y-92887569D01*
X169476000Y-92836560D01*
X167444000Y-92836560D01*
X167208683Y-92880838D01*
X166992559Y-93019910D01*
X166847569Y-93232110D01*
X166796560Y-93484000D01*
X165044430Y-93484000D01*
X165003162Y-93264683D01*
X164864090Y-93048559D01*
X164651890Y-92903569D01*
X164400000Y-92852560D01*
X163400000Y-92852560D01*
X163164683Y-92896838D01*
X162948559Y-93035910D01*
X162803569Y-93248110D01*
X162752560Y-93500000D01*
X157747440Y-93500000D01*
X157703162Y-93264683D01*
X157564090Y-93048559D01*
X157351890Y-92903569D01*
X157100000Y-92852560D01*
X156464498Y-92852560D01*
X156511660Y-92821047D01*
X157069931Y-92710000D01*
X173836974Y-92710000D01*
X173661673Y-92885302D01*
X173661673Y-92885302D01*
G37*
X173661673Y-92885302D02*
X173565000Y-93118691D01*
X173565000Y-93459250D01*
X173723750Y-93618000D01*
X174373000Y-93618000D01*
X174373000Y-93598000D01*
X174627000Y-93598000D01*
X174627000Y-93618000D01*
X175276250Y-93618000D01*
X175435000Y-93459250D01*
X175435000Y-93118691D01*
X175338327Y-92885302D01*
X175163026Y-92710000D01*
X182491036Y-92710000D01*
X182452560Y-92900000D01*
X182452560Y-96100000D01*
X182496838Y-96335317D01*
X182635910Y-96551441D01*
X182715000Y-96605481D01*
X182715000Y-99193156D01*
X182648559Y-99235910D01*
X182553996Y-99374307D01*
X182598675Y-99253199D01*
X182573878Y-98622139D01*
X182380088Y-98154288D01*
X182118159Y-98061446D01*
X181179605Y-99000000D01*
X182118159Y-99938554D01*
X182380088Y-99845712D01*
X182475336Y-99587527D01*
X182452560Y-99700000D01*
X182452560Y-100898366D01*
X182346602Y-100641928D01*
X181908471Y-100203032D01*
X181938554Y-100118159D01*
X181000000Y-99179605D01*
X180061446Y-100118159D01*
X180091725Y-100203583D01*
X179654968Y-100639579D01*
X179412776Y-101222841D01*
X179412225Y-101854388D01*
X179653398Y-102438072D01*
X180024935Y-102810257D01*
X179654968Y-103179579D01*
X179412776Y-103762841D01*
X179412225Y-104394388D01*
X179653398Y-104978072D01*
X180024935Y-105350257D01*
X179654968Y-105719579D01*
X179412776Y-106302841D01*
X179412225Y-106934388D01*
X179653398Y-107518072D01*
X179849983Y-107715000D01*
X175875994Y-107715000D01*
X175875994Y-105690999D01*
X175875995Y-105690994D01*
X175808628Y-105352320D01*
X175683253Y-105164683D01*
X175616784Y-105065204D01*
X175616781Y-105065202D01*
X174961800Y-104410221D01*
X174967224Y-104397159D01*
X174967775Y-103765612D01*
X174726602Y-103181928D01*
X174355065Y-102809743D01*
X174725032Y-102440421D01*
X174967224Y-101857159D01*
X174967775Y-101225612D01*
X174726602Y-100641928D01*
X174355065Y-100269743D01*
X174725032Y-99900421D01*
X174967224Y-99317159D01*
X174967775Y-98685612D01*
X174726602Y-98101928D01*
X174280421Y-97654968D01*
X173765447Y-97441132D01*
X173892883Y-97313696D01*
X173948110Y-97351431D01*
X174200000Y-97402440D01*
X174800000Y-97402440D01*
X175035317Y-97358162D01*
X175106060Y-97312640D01*
X175519208Y-97725787D01*
X175519210Y-97725790D01*
X175806325Y-97917633D01*
X176145000Y-97985000D01*
X179805392Y-97985000D01*
X179881839Y-98061447D01*
X179619912Y-98154288D01*
X179401325Y-98746801D01*
X179426122Y-99377861D01*
X179619912Y-99845712D01*
X179881841Y-99938554D01*
X180820395Y-99000000D01*
X180806253Y-98985858D01*
X180985858Y-98806253D01*
X181000000Y-98820395D01*
X181938554Y-97881841D01*
X181845712Y-97619912D01*
X181253199Y-97401325D01*
X180850428Y-97417152D01*
X181125787Y-97141792D01*
X181125790Y-97141790D01*
X181317633Y-96854675D01*
X181338454Y-96750000D01*
X181355673Y-96663440D01*
X181516000Y-96663440D01*
X181751317Y-96619162D01*
X181967441Y-96480090D01*
X182112431Y-96267890D01*
X182163440Y-96016000D01*
X182163440Y-93984000D01*
X182119162Y-93748683D01*
X181980090Y-93532559D01*
X181767890Y-93387569D01*
X181516000Y-93336560D01*
X179484000Y-93336560D01*
X179248683Y-93380838D01*
X179032559Y-93519910D01*
X178921160Y-93682948D01*
X178824818Y-93593615D01*
X178342944Y-93394025D01*
X178087000Y-93513164D01*
X178087000Y-94873000D01*
X178107000Y-94873000D01*
X178107000Y-95127000D01*
X178087000Y-95127000D01*
X178087000Y-95147000D01*
X177833000Y-95147000D01*
X177833000Y-95127000D01*
X176472633Y-95127000D01*
X176354017Y-95382946D01*
X176622812Y-95968379D01*
X176888782Y-96215000D01*
X176511579Y-96215000D01*
X175925790Y-95629210D01*
X175902727Y-95613800D01*
X175638675Y-95437367D01*
X175582484Y-95426190D01*
X175307847Y-95371560D01*
X175264090Y-95303559D01*
X175051890Y-95158569D01*
X174800000Y-95107560D01*
X174200000Y-95107560D01*
X173964683Y-95151838D01*
X173748559Y-95290910D01*
X173693658Y-95371261D01*
X173361325Y-95437367D01*
X173074210Y-95629210D01*
X173074208Y-95629213D01*
X171980053Y-96723367D01*
X171964090Y-96698559D01*
X171751890Y-96553569D01*
X171500000Y-96502560D01*
X169500000Y-96502560D01*
X169264683Y-96546838D01*
X169048559Y-96685910D01*
X168903569Y-96898110D01*
X168852560Y-97150000D01*
X168852560Y-98850000D01*
X168896838Y-99085317D01*
X169035910Y-99301441D01*
X169191007Y-99407414D01*
X169163997Y-99434424D01*
X169118550Y-99388897D01*
X168891385Y-99294569D01*
X168790809Y-99227367D01*
X168734618Y-99216190D01*
X168452134Y-99159999D01*
X168452129Y-99160000D01*
X168056726Y-99160000D01*
X168096431Y-99101890D01*
X168147440Y-98850000D01*
X168147440Y-97150000D01*
X168103162Y-96914683D01*
X167964090Y-96698559D01*
X167751890Y-96553569D01*
X167500000Y-96502560D01*
X165500000Y-96502560D01*
X165264683Y-96546838D01*
X165048559Y-96685910D01*
X164903569Y-96898110D01*
X164852560Y-97150000D01*
X164852560Y-97986231D01*
X164842633Y-97936326D01*
X164842633Y-97936325D01*
X164650790Y-97649210D01*
X164650787Y-97649208D01*
X164149019Y-97147440D01*
X164400000Y-97147440D01*
X164635317Y-97103162D01*
X164851441Y-96964090D01*
X164996431Y-96751890D01*
X165047440Y-96500000D01*
X165047440Y-95700000D01*
X165003162Y-95464683D01*
X164864090Y-95248559D01*
X164651890Y-95103569D01*
X164400000Y-95052560D01*
X163400000Y-95052560D01*
X163164683Y-95096838D01*
X162948559Y-95235910D01*
X162866564Y-95355914D01*
X162850000Y-95352560D01*
X162778425Y-95352560D01*
X162834811Y-95216767D01*
X162835188Y-94785127D01*
X162670354Y-94386200D01*
X162365405Y-94080718D01*
X161966767Y-93915189D01*
X161535127Y-93914812D01*
X161136200Y-94079646D01*
X160830718Y-94384595D01*
X160665189Y-94783233D01*
X160664812Y-95214873D01*
X160829646Y-95613800D01*
X161134595Y-95919282D01*
X161502560Y-96072074D01*
X161502560Y-97500000D01*
X161546838Y-97735317D01*
X161685910Y-97951441D01*
X161898110Y-98096431D01*
X162150000Y-98147440D01*
X162430080Y-98147440D01*
X162407808Y-98169673D01*
X162357434Y-98290987D01*
X162288138Y-98360283D01*
X162250000Y-98352560D01*
X160604140Y-98352560D01*
X160385000Y-98133420D01*
X160385000Y-97841797D01*
X160446431Y-97751890D01*
X160497440Y-97500000D01*
X160497440Y-96000000D01*
X160453162Y-95764683D01*
X160314090Y-95548559D01*
X160101890Y-95403569D01*
X159850000Y-95352560D01*
X159778425Y-95352560D01*
X159834811Y-95216767D01*
X159835188Y-94785127D01*
X159670354Y-94386200D01*
X159365405Y-94080718D01*
X158966767Y-93915189D01*
X158535127Y-93914812D01*
X158136200Y-94079646D01*
X157830718Y-94384595D01*
X157665189Y-94783233D01*
X157664812Y-95214873D01*
X157721703Y-95352560D01*
X157650000Y-95352560D01*
X157633063Y-95355747D01*
X157564090Y-95248559D01*
X157351890Y-95103569D01*
X157100000Y-95052560D01*
X156100000Y-95052560D01*
X155864683Y-95096838D01*
X155710000Y-95196374D01*
X155710000Y-94802065D01*
X155848110Y-94896431D01*
X156100000Y-94947440D01*
X157100000Y-94947440D01*
X157335317Y-94903162D01*
X157551441Y-94764090D01*
X157696431Y-94551890D01*
X157747440Y-94300000D01*
X157747440Y-93500000D01*
X162752560Y-93500000D01*
X162752560Y-94300000D01*
X162796838Y-94535317D01*
X162935910Y-94751441D01*
X163148110Y-94896431D01*
X163400000Y-94947440D01*
X164400000Y-94947440D01*
X164635317Y-94903162D01*
X164851441Y-94764090D01*
X164996431Y-94551890D01*
X165047440Y-94300000D01*
X165047440Y-93500000D01*
X165044430Y-93484000D01*
X166796560Y-93484000D01*
X166796560Y-95516000D01*
X166840838Y-95751317D01*
X166979910Y-95967441D01*
X167192110Y-96112431D01*
X167444000Y-96163440D01*
X169476000Y-96163440D01*
X169711317Y-96119162D01*
X169927441Y-95980090D01*
X170038840Y-95817052D01*
X170135182Y-95906385D01*
X170617056Y-96105975D01*
X170873000Y-95986836D01*
X170873000Y-94627000D01*
X171127000Y-94627000D01*
X171127000Y-95986836D01*
X171382944Y-96105975D01*
X171864818Y-95906385D01*
X172337188Y-95468379D01*
X172605983Y-94882946D01*
X172487367Y-94627000D01*
X171127000Y-94627000D01*
X170873000Y-94627000D01*
X170853000Y-94627000D01*
X170853000Y-94373000D01*
X170873000Y-94373000D01*
X170873000Y-93013164D01*
X171127000Y-93013164D01*
X171127000Y-94373000D01*
X172487367Y-94373000D01*
X172605983Y-94117054D01*
X172566358Y-94030750D01*
X173565000Y-94030750D01*
X173565000Y-94371309D01*
X173661673Y-94604698D01*
X173840301Y-94783327D01*
X174073690Y-94880000D01*
X174214250Y-94880000D01*
X174373000Y-94721250D01*
X174373000Y-93872000D01*
X174627000Y-93872000D01*
X174627000Y-94721250D01*
X174785750Y-94880000D01*
X174926310Y-94880000D01*
X175159699Y-94783327D01*
X175325971Y-94617054D01*
X176354017Y-94617054D01*
X176472633Y-94873000D01*
X177833000Y-94873000D01*
X177833000Y-93513164D01*
X177577056Y-93394025D01*
X177095182Y-93593615D01*
X176622812Y-94031621D01*
X176354017Y-94617054D01*
X175325971Y-94617054D01*
X175338327Y-94604698D01*
X175435000Y-94371309D01*
X175435000Y-94030750D01*
X175276250Y-93872000D01*
X174627000Y-93872000D01*
X174373000Y-93872000D01*
X173723750Y-93872000D01*
X173565000Y-94030750D01*
X172566358Y-94030750D01*
X172337188Y-93531621D01*
X171864818Y-93093615D01*
X171382944Y-92894025D01*
X171127000Y-93013164D01*
X170873000Y-93013164D01*
X170617056Y-92894025D01*
X170135182Y-93093615D01*
X170037602Y-93184097D01*
X169940090Y-93032559D01*
X169727890Y-92887569D01*
X169476000Y-92836560D01*
X167444000Y-92836560D01*
X167208683Y-92880838D01*
X166992559Y-93019910D01*
X166847569Y-93232110D01*
X166796560Y-93484000D01*
X165044430Y-93484000D01*
X165003162Y-93264683D01*
X164864090Y-93048559D01*
X164651890Y-92903569D01*
X164400000Y-92852560D01*
X163400000Y-92852560D01*
X163164683Y-92896838D01*
X162948559Y-93035910D01*
X162803569Y-93248110D01*
X162752560Y-93500000D01*
X157747440Y-93500000D01*
X157703162Y-93264683D01*
X157564090Y-93048559D01*
X157351890Y-92903569D01*
X157100000Y-92852560D01*
X156464498Y-92852560D01*
X156511660Y-92821047D01*
X157069931Y-92710000D01*
X173836974Y-92710000D01*
X173661673Y-92885302D01*
G36*
X165035910Y-99301441D02*
X165248110Y-99446431D01*
X165500000Y-99497440D01*
X165537191Y-99497440D01*
X165527560Y-99545000D01*
X165527560Y-100545000D01*
X165571838Y-100780317D01*
X165710910Y-100996441D01*
X165923110Y-101141431D01*
X166175000Y-101192440D01*
X166775000Y-101192440D01*
X167010317Y-101148162D01*
X167226441Y-101009090D01*
X167280481Y-100930000D01*
X167668420Y-100930000D01*
X167093998Y-101504422D01*
X167026890Y-101458569D01*
X166775000Y-101407560D01*
X166175000Y-101407560D01*
X165939683Y-101451838D01*
X165723559Y-101590910D01*
X165578569Y-101803110D01*
X165527560Y-102055000D01*
X165527560Y-103055000D01*
X165571838Y-103290317D01*
X165710910Y-103506441D01*
X165923110Y-103651431D01*
X166175000Y-103702440D01*
X166594202Y-103702440D01*
X166487233Y-103960047D01*
X166471291Y-103975990D01*
X165774950Y-103975990D01*
X165539633Y-104020268D01*
X165323509Y-104159340D01*
X165224368Y-104304437D01*
X165139140Y-104171989D01*
X164926940Y-104026999D01*
X164675050Y-103975990D01*
X163874950Y-103975990D01*
X163639633Y-104020268D01*
X163423509Y-104159340D01*
X163377807Y-104226228D01*
X162897440Y-103745861D01*
X162897440Y-102650000D01*
X162853162Y-102414683D01*
X162714090Y-102198559D01*
X162531231Y-102073617D01*
X162560162Y-102055000D01*
X163077560Y-102055000D01*
X163077560Y-103055000D01*
X163121838Y-103290317D01*
X163260910Y-103506441D01*
X163473110Y-103651431D01*
X163725000Y-103702440D01*
X164325000Y-103702440D01*
X164560317Y-103658162D01*
X164776441Y-103519090D01*
X164921431Y-103306890D01*
X164972440Y-103055000D01*
X164972440Y-102055000D01*
X164928162Y-101819683D01*
X164789090Y-101603559D01*
X164576890Y-101458569D01*
X164325000Y-101407560D01*
X163725000Y-101407560D01*
X163489683Y-101451838D01*
X163273559Y-101590910D01*
X163128569Y-101803110D01*
X163077560Y-102055000D01*
X162560162Y-102055000D01*
X162701441Y-101964090D01*
X162846431Y-101751890D01*
X162897440Y-101500000D01*
X162897440Y-100254140D01*
X163077560Y-100074019D01*
X163077560Y-100545000D01*
X163121838Y-100780317D01*
X163260910Y-100996441D01*
X163473110Y-101141431D01*
X163725000Y-101192440D01*
X164325000Y-101192440D01*
X164560317Y-101148162D01*
X164776441Y-101009090D01*
X164921431Y-100796890D01*
X164972440Y-100545000D01*
X164972440Y-99545000D01*
X164928162Y-99309683D01*
X164910000Y-99281458D01*
X164910000Y-99105771D01*
X165035910Y-99301441D01*
X165035910Y-99301441D01*
G37*
X165035910Y-99301441D02*
X165248110Y-99446431D01*
X165500000Y-99497440D01*
X165537191Y-99497440D01*
X165527560Y-99545000D01*
X165527560Y-100545000D01*
X165571838Y-100780317D01*
X165710910Y-100996441D01*
X165923110Y-101141431D01*
X166175000Y-101192440D01*
X166775000Y-101192440D01*
X167010317Y-101148162D01*
X167226441Y-101009090D01*
X167280481Y-100930000D01*
X167668420Y-100930000D01*
X167093998Y-101504422D01*
X167026890Y-101458569D01*
X166775000Y-101407560D01*
X166175000Y-101407560D01*
X165939683Y-101451838D01*
X165723559Y-101590910D01*
X165578569Y-101803110D01*
X165527560Y-102055000D01*
X165527560Y-103055000D01*
X165571838Y-103290317D01*
X165710910Y-103506441D01*
X165923110Y-103651431D01*
X166175000Y-103702440D01*
X166594202Y-103702440D01*
X166487233Y-103960047D01*
X166471291Y-103975990D01*
X165774950Y-103975990D01*
X165539633Y-104020268D01*
X165323509Y-104159340D01*
X165224368Y-104304437D01*
X165139140Y-104171989D01*
X164926940Y-104026999D01*
X164675050Y-103975990D01*
X163874950Y-103975990D01*
X163639633Y-104020268D01*
X163423509Y-104159340D01*
X163377807Y-104226228D01*
X162897440Y-103745861D01*
X162897440Y-102650000D01*
X162853162Y-102414683D01*
X162714090Y-102198559D01*
X162531231Y-102073617D01*
X162560162Y-102055000D01*
X163077560Y-102055000D01*
X163077560Y-103055000D01*
X163121838Y-103290317D01*
X163260910Y-103506441D01*
X163473110Y-103651431D01*
X163725000Y-103702440D01*
X164325000Y-103702440D01*
X164560317Y-103658162D01*
X164776441Y-103519090D01*
X164921431Y-103306890D01*
X164972440Y-103055000D01*
X164972440Y-102055000D01*
X164928162Y-101819683D01*
X164789090Y-101603559D01*
X164576890Y-101458569D01*
X164325000Y-101407560D01*
X163725000Y-101407560D01*
X163489683Y-101451838D01*
X163273559Y-101590910D01*
X163128569Y-101803110D01*
X163077560Y-102055000D01*
X162560162Y-102055000D01*
X162701441Y-101964090D01*
X162846431Y-101751890D01*
X162897440Y-101500000D01*
X162897440Y-100254140D01*
X163077560Y-100074019D01*
X163077560Y-100545000D01*
X163121838Y-100780317D01*
X163260910Y-100996441D01*
X163473110Y-101141431D01*
X163725000Y-101192440D01*
X164325000Y-101192440D01*
X164560317Y-101148162D01*
X164776441Y-101009090D01*
X164921431Y-100796890D01*
X164972440Y-100545000D01*
X164972440Y-99545000D01*
X164928162Y-99309683D01*
X164910000Y-99281458D01*
X164910000Y-99105771D01*
X165035910Y-99301441D01*
G36*
X186452560Y-92900000D02*
X186452560Y-96100000D01*
X186496838Y-96335317D01*
X186555684Y-96426766D01*
X186432366Y-96611326D01*
X186432366Y-96611327D01*
X186364998Y-96950001D01*
X186364999Y-96950006D01*
X186364999Y-98849994D01*
X186364998Y-98849999D01*
X186415103Y-99101890D01*
X186432366Y-99188674D01*
X186540160Y-99350000D01*
X186555212Y-99372527D01*
X186503569Y-99448110D01*
X186452560Y-99700000D01*
X186452560Y-102295861D01*
X186371509Y-102376911D01*
X186251401Y-102426539D01*
X186152580Y-102525188D01*
X186132485Y-102521191D01*
X185850001Y-102465000D01*
X185849996Y-102465001D01*
X185702366Y-102465001D01*
X185734838Y-102386799D01*
X185735162Y-102014833D01*
X185593117Y-101671057D01*
X185330327Y-101407808D01*
X185209013Y-101357434D01*
X184747440Y-100895860D01*
X184747440Y-99700000D01*
X184703162Y-99464683D01*
X184564090Y-99248559D01*
X184485000Y-99194519D01*
X184485000Y-96606844D01*
X184551441Y-96564090D01*
X184696431Y-96351890D01*
X184747440Y-96100000D01*
X184747440Y-92900000D01*
X184711689Y-92710000D01*
X186491036Y-92710000D01*
X186452560Y-92900000D01*
X186452560Y-92900000D01*
G37*
X186452560Y-92900000D02*
X186452560Y-96100000D01*
X186496838Y-96335317D01*
X186555684Y-96426766D01*
X186432366Y-96611326D01*
X186432366Y-96611327D01*
X186364998Y-96950001D01*
X186364999Y-96950006D01*
X186364999Y-98849994D01*
X186364998Y-98849999D01*
X186415103Y-99101890D01*
X186432366Y-99188674D01*
X186540160Y-99350000D01*
X186555212Y-99372527D01*
X186503569Y-99448110D01*
X186452560Y-99700000D01*
X186452560Y-102295861D01*
X186371509Y-102376911D01*
X186251401Y-102426539D01*
X186152580Y-102525188D01*
X186132485Y-102521191D01*
X185850001Y-102465000D01*
X185849996Y-102465001D01*
X185702366Y-102465001D01*
X185734838Y-102386799D01*
X185735162Y-102014833D01*
X185593117Y-101671057D01*
X185330327Y-101407808D01*
X185209013Y-101357434D01*
X184747440Y-100895860D01*
X184747440Y-99700000D01*
X184703162Y-99464683D01*
X184564090Y-99248559D01*
X184485000Y-99194519D01*
X184485000Y-96606844D01*
X184551441Y-96564090D01*
X184696431Y-96351890D01*
X184747440Y-96100000D01*
X184747440Y-92900000D01*
X184711689Y-92710000D01*
X186491036Y-92710000D01*
X186452560Y-92900000D01*
M02*
