M48
;DRILL file {KiCad (2015-11-17 BZR 6321)-product} date Tue 19 Jan 2016 02:11:57 PM EST
;FORMAT={-:-/ absolute / inch / decimal}
FMAT,2
INCH,TZ
T1C0.016
T2C0.030
T3C0.040
T4C0.035
%
G90
G05
M72
T1
X6.2717Y-3.9409
X6.4252Y-3.8858
X6.4961Y-3.9764
X6.5906Y-4.1024
X6.6373Y-3.9441
X6.6732Y-4.2613
X6.685Y-4.2205
X6.7151Y-4.2317
X6.7323Y-3.9764
X6.7323Y-4.0866
X6.7447Y-4.2197
X6.7564Y-4.2584
X6.8273Y-4.3453
X6.8776Y-4.2685
X6.9055Y-4.3346
X6.9291Y-4.0945
X6.937Y-4.4882
X7.Y-4.4252
X7.0261Y-4.3061
X7.063Y-4.311
X7.0876Y-4.4462
X7.1024Y-4.5669
X7.1154Y-4.4185
X7.2073Y-4.1573
X7.2756Y-4.0236
X7.2756Y-4.4751
X7.3228Y-3.8583
X7.3346Y-4.189
X7.3425Y-4.2717
X7.3536Y-4.0638
X7.3937Y-4.0945
X7.4016Y-3.8583
T2
X6.826Y-3.8976
X6.826Y-3.9976
X6.826Y-4.0976
X6.826Y-4.1976
X7.126Y-3.8976
X7.126Y-3.9976
X7.126Y-4.0976
X7.126Y-4.1976
T3
X6.2106Y-4.4299
X6.2106Y-4.5299
X6.3661Y-4.4299
X6.3661Y-4.5299
X6.5197Y-4.4299
X6.5197Y-4.5299
X6.6323Y-3.7205
X6.6756Y-4.3701
X6.6756Y-4.4701
X6.6756Y-4.5701
X6.7323Y-3.7205
X6.7756Y-4.3701
X6.7756Y-4.4701
X6.7756Y-4.5701
X7.0063Y-3.7402
X7.1063Y-3.7402
T4
X6.25Y-3.7402
X6.3681Y-3.7402
T0
M30
