G04 #@! TF.FileFunction,Legend,Top*
%FSLAX46Y46*%
G04 Gerber Fmt 4.6, Leading zero omitted, Abs format (unit mm)*
G04 Created by KiCad (PCBNEW (2015-11-17 BZR 6321)-product) date Tue 19 Jan 2016 02:12:06 PM EST*
%MOMM*%
G01*
G04 APERTURE LIST*
%ADD10C,0.100000*%
%ADD11C,0.150000*%
G04 APERTURE END LIST*
D10*
D11*
X168050180Y-104149660D02*
X168050180Y-103448620D01*
X168050180Y-103448620D02*
X168299100Y-103448620D01*
X170849160Y-103448620D02*
X171049820Y-103448620D01*
X171049820Y-103448620D02*
X171049820Y-104149660D01*
X158250000Y-101725000D02*
X160250000Y-101725000D01*
X160250000Y-98775000D02*
X158250000Y-98775000D01*
X186039214Y-114867358D02*
X186039214Y-112867358D01*
X183989214Y-112867358D02*
X183989214Y-114867358D01*
X164025000Y-101050000D02*
X164025000Y-100800000D01*
X164025000Y-101550000D02*
X164025000Y-101800000D01*
X164025000Y-101550000D02*
X163675000Y-101050000D01*
X163675000Y-101050000D02*
X164375000Y-101050000D01*
X164375000Y-101050000D02*
X164025000Y-101550000D01*
X163675000Y-101550000D02*
X164375000Y-101550000D01*
X164825000Y-102600000D02*
X164825000Y-100200000D01*
X163225000Y-102600000D02*
X163225000Y-100200000D01*
X166475000Y-101550000D02*
X166475000Y-101800000D01*
X166475000Y-101050000D02*
X166475000Y-100800000D01*
X166475000Y-101050000D02*
X166825000Y-101550000D01*
X166825000Y-101550000D02*
X166125000Y-101550000D01*
X166125000Y-101550000D02*
X166475000Y-101050000D01*
X166825000Y-101050000D02*
X166125000Y-101050000D01*
X165675000Y-100000000D02*
X165675000Y-102400000D01*
X167275000Y-100000000D02*
X167275000Y-102400000D01*
X188839214Y-112867358D02*
X188839214Y-114867358D01*
X186689214Y-114867358D02*
X186689214Y-112867358D01*
X174500000Y-94750000D02*
X174500000Y-94500000D01*
X174500000Y-95250000D02*
X174500000Y-95500000D01*
X174500000Y-95250000D02*
X174150000Y-94750000D01*
X174150000Y-94750000D02*
X174850000Y-94750000D01*
X174850000Y-94750000D02*
X174500000Y-95250000D01*
X174150000Y-95250000D02*
X174850000Y-95250000D01*
X175300000Y-96300000D02*
X175300000Y-93900000D01*
X173700000Y-96300000D02*
X173700000Y-93900000D01*
X178079000Y-107890000D02*
X180492000Y-107890000D01*
X176301000Y-107890000D02*
X173888000Y-107890000D01*
X178079000Y-107890000D02*
G75*
G03X177190000Y-107001000I-889000J0D01*
G01*
X177190000Y-107001000D02*
G75*
G03X176301000Y-107890000I0J-889000D01*
G01*
X179603000Y-107001000D02*
G75*
G03X179603000Y-107001000I-254000J0D01*
G01*
X180492000Y-97730000D02*
X180492000Y-97857000D01*
X180492000Y-100397000D02*
X180492000Y-100143000D01*
X180492000Y-102937000D02*
X180492000Y-102683000D01*
X180492000Y-105477000D02*
X180492000Y-105223000D01*
X180492000Y-107890000D02*
X180492000Y-107763000D01*
X173888000Y-107890000D02*
X173888000Y-107763000D01*
X173888000Y-97730000D02*
X173888000Y-97857000D01*
X173888000Y-100397000D02*
X173888000Y-100143000D01*
X173888000Y-102937000D02*
X173888000Y-102683000D01*
X173888000Y-105477000D02*
X173888000Y-105223000D01*
X180492000Y-97730000D02*
X173888000Y-97730000D01*
X179230000Y-96270000D02*
X176690000Y-96270000D01*
X182050000Y-96550000D02*
X180500000Y-96550000D01*
X179230000Y-96270000D02*
X179230000Y-93730000D01*
X180500000Y-93450000D02*
X182050000Y-93450000D01*
X182050000Y-93450000D02*
X182050000Y-96550000D01*
X179230000Y-93730000D02*
X176690000Y-93730000D01*
X176690000Y-93730000D02*
X176690000Y-96270000D01*
X168290000Y-112270000D02*
X168290000Y-117350000D01*
X168010000Y-109450000D02*
X169560000Y-109450000D01*
X170830000Y-109730000D02*
X170830000Y-112270000D01*
X170830000Y-112270000D02*
X168290000Y-112270000D01*
X168290000Y-117350000D02*
X173370000Y-117350000D01*
X173370000Y-117350000D02*
X173370000Y-112270000D01*
X168010000Y-109450000D02*
X168010000Y-111000000D01*
X173370000Y-109730000D02*
X170830000Y-109730000D01*
X173370000Y-112270000D02*
X173370000Y-109730000D01*
X164330000Y-113788273D02*
X164330000Y-111248273D01*
X164050000Y-116608273D02*
X164050000Y-115058273D01*
X164330000Y-113788273D02*
X166870000Y-113788273D01*
X167150000Y-115058273D02*
X167150000Y-116608273D01*
X167150000Y-116608273D02*
X164050000Y-116608273D01*
X166870000Y-113788273D02*
X166870000Y-111248273D01*
X166870000Y-111248273D02*
X164330000Y-111248273D01*
X160430000Y-113788273D02*
X160430000Y-111248273D01*
X160150000Y-116608273D02*
X160150000Y-115058273D01*
X160430000Y-113788273D02*
X162970000Y-113788273D01*
X163250000Y-115058273D02*
X163250000Y-116608273D01*
X163250000Y-116608273D02*
X160150000Y-116608273D01*
X162970000Y-113788273D02*
X162970000Y-111248273D01*
X162970000Y-111248273D02*
X160430000Y-111248273D01*
X156480000Y-113788273D02*
X156480000Y-111248273D01*
X156200000Y-116608273D02*
X156200000Y-115058273D01*
X156480000Y-113788273D02*
X159020000Y-113788273D01*
X159300000Y-115058273D02*
X159300000Y-116608273D01*
X159300000Y-116608273D02*
X156200000Y-116608273D01*
X159020000Y-113788273D02*
X159020000Y-111248273D01*
X159020000Y-111248273D02*
X156480000Y-111248273D01*
X166724820Y-106974200D02*
X166724820Y-107675240D01*
X166724820Y-107675240D02*
X166475900Y-107675240D01*
X163925840Y-107675240D02*
X163725180Y-107675240D01*
X163725180Y-107675240D02*
X163725180Y-106974200D01*
X158250000Y-105175000D02*
X160250000Y-105175000D01*
X160250000Y-107325000D02*
X158250000Y-107325000D01*
X158250000Y-107925000D02*
X160250000Y-107925000D01*
X160250000Y-110075000D02*
X158250000Y-110075000D01*
X158250000Y-102425000D02*
X160250000Y-102425000D01*
X160250000Y-104575000D02*
X158250000Y-104575000D01*
X185200000Y-107525000D02*
X187200000Y-107525000D01*
X187200000Y-109675000D02*
X185200000Y-109675000D01*
X175125000Y-115200000D02*
X175125000Y-113200000D01*
X177275000Y-113200000D02*
X177275000Y-115200000D01*
X185200000Y-104625000D02*
X187200000Y-104625000D01*
X187200000Y-106775000D02*
X185200000Y-106775000D01*
X183339214Y-112867358D02*
X183339214Y-114867358D01*
X181189214Y-114867358D02*
X181189214Y-112867358D01*
X169500000Y-99075000D02*
X167500000Y-99075000D01*
X167500000Y-96925000D02*
X169500000Y-96925000D01*
X159500000Y-94000000D02*
X159500000Y-93700000D01*
X161000000Y-94000000D02*
X161000000Y-93700000D01*
X158850000Y-96300000D02*
X158650000Y-96300000D01*
X161650000Y-92400000D02*
X161450000Y-92200000D01*
X160350000Y-92400000D02*
X160550000Y-92200000D01*
X161650000Y-93700000D02*
X161650000Y-92400000D01*
X161450000Y-92200000D02*
X160550000Y-92200000D01*
X160350000Y-92400000D02*
X160350000Y-93700000D01*
X163100000Y-93700000D02*
X157400000Y-93700000D01*
X161850000Y-96300000D02*
X160150000Y-96300000D01*
X163600000Y-95400000D02*
X163600000Y-94600000D01*
X156900000Y-94600000D02*
X156900000Y-95400000D01*
X188600000Y-101150000D02*
X188400000Y-101150000D01*
X182600000Y-101150000D02*
X182800000Y-101150000D01*
X182600000Y-94650000D02*
X182800000Y-94650000D01*
X188600000Y-94650000D02*
X188400000Y-94650000D01*
X186800000Y-94650000D02*
X184400000Y-94650000D01*
X186800000Y-101150000D02*
X184400000Y-101150000D01*
X188600000Y-101150000D02*
X188600000Y-94650000D01*
X182600000Y-94650000D02*
X182600000Y-101150000D01*
X186600000Y-97900000D02*
G75*
G03X186600000Y-97900000I-1000000J0D01*
G01*
X187100000Y-97900000D02*
G75*
G03X187100000Y-97900000I-1500000J0D01*
G01*
X169730000Y-93230000D02*
X172270000Y-93230000D01*
X166910000Y-92950000D02*
X168460000Y-92950000D01*
X169730000Y-93230000D02*
X169730000Y-95770000D01*
X168460000Y-96050000D02*
X166910000Y-96050000D01*
X166910000Y-96050000D02*
X166910000Y-92950000D01*
X169730000Y-95770000D02*
X172270000Y-95770000D01*
X172270000Y-95770000D02*
X172270000Y-93230000D01*
X168857619Y-103495238D02*
X168810000Y-103590476D01*
X168714762Y-103685714D01*
X168571905Y-103828571D01*
X168524286Y-103923810D01*
X168524286Y-104019048D01*
X168762381Y-103971429D02*
X168714762Y-104066667D01*
X168619524Y-104161905D01*
X168429048Y-104209524D01*
X168095714Y-104209524D01*
X167905238Y-104161905D01*
X167810000Y-104066667D01*
X167762381Y-103971429D01*
X167762381Y-103780952D01*
X167810000Y-103685714D01*
X167905238Y-103590476D01*
X168095714Y-103542857D01*
X168429048Y-103542857D01*
X168619524Y-103590476D01*
X168714762Y-103685714D01*
X168762381Y-103780952D01*
X168762381Y-103971429D01*
X167857619Y-103161905D02*
X167810000Y-103114286D01*
X167762381Y-103019048D01*
X167762381Y-102780952D01*
X167810000Y-102685714D01*
X167857619Y-102638095D01*
X167952857Y-102590476D01*
X168048095Y-102590476D01*
X168190952Y-102638095D01*
X168762381Y-103209524D01*
X168762381Y-102590476D01*
X159637143Y-100426666D02*
X159684762Y-100474285D01*
X159732381Y-100617142D01*
X159732381Y-100712380D01*
X159684762Y-100855238D01*
X159589524Y-100950476D01*
X159494286Y-100998095D01*
X159303810Y-101045714D01*
X159160952Y-101045714D01*
X158970476Y-100998095D01*
X158875238Y-100950476D01*
X158780000Y-100855238D01*
X158732381Y-100712380D01*
X158732381Y-100617142D01*
X158780000Y-100474285D01*
X158827619Y-100426666D01*
X159732381Y-99474285D02*
X159732381Y-100045714D01*
X159732381Y-99760000D02*
X158732381Y-99760000D01*
X158875238Y-99855238D01*
X158970476Y-99950476D01*
X159018095Y-100045714D01*
X184773334Y-114247143D02*
X184725715Y-114294762D01*
X184582858Y-114342381D01*
X184487620Y-114342381D01*
X184344762Y-114294762D01*
X184249524Y-114199524D01*
X184201905Y-114104286D01*
X184154286Y-113913810D01*
X184154286Y-113770952D01*
X184201905Y-113580476D01*
X184249524Y-113485238D01*
X184344762Y-113390000D01*
X184487620Y-113342381D01*
X184582858Y-113342381D01*
X184725715Y-113390000D01*
X184773334Y-113437619D01*
X185154286Y-113437619D02*
X185201905Y-113390000D01*
X185297143Y-113342381D01*
X185535239Y-113342381D01*
X185630477Y-113390000D01*
X185678096Y-113437619D01*
X185725715Y-113532857D01*
X185725715Y-113628095D01*
X185678096Y-113770952D01*
X185106667Y-114342381D01*
X185725715Y-114342381D01*
X163652381Y-101938095D02*
X162652381Y-101938095D01*
X162652381Y-101700000D01*
X162700000Y-101557142D01*
X162795238Y-101461904D01*
X162890476Y-101414285D01*
X163080952Y-101366666D01*
X163223810Y-101366666D01*
X163414286Y-101414285D01*
X163509524Y-101461904D01*
X163604762Y-101557142D01*
X163652381Y-101700000D01*
X163652381Y-101938095D01*
X163652381Y-100414285D02*
X163652381Y-100985714D01*
X163652381Y-100700000D02*
X162652381Y-100700000D01*
X162795238Y-100795238D01*
X162890476Y-100890476D01*
X162938095Y-100985714D01*
X168052381Y-102038095D02*
X167052381Y-102038095D01*
X167052381Y-101800000D01*
X167100000Y-101657142D01*
X167195238Y-101561904D01*
X167290476Y-101514285D01*
X167480952Y-101466666D01*
X167623810Y-101466666D01*
X167814286Y-101514285D01*
X167909524Y-101561904D01*
X168004762Y-101657142D01*
X168052381Y-101800000D01*
X168052381Y-102038095D01*
X167147619Y-101085714D02*
X167100000Y-101038095D01*
X167052381Y-100942857D01*
X167052381Y-100704761D01*
X167100000Y-100609523D01*
X167147619Y-100561904D01*
X167242857Y-100514285D01*
X167338095Y-100514285D01*
X167480952Y-100561904D01*
X168052381Y-101133333D01*
X168052381Y-100514285D01*
X187081905Y-114382381D02*
X187081905Y-113382381D01*
X187320000Y-113382381D01*
X187462858Y-113430000D01*
X187558096Y-113525238D01*
X187605715Y-113620476D01*
X187653334Y-113810952D01*
X187653334Y-113953810D01*
X187605715Y-114144286D01*
X187558096Y-114239524D01*
X187462858Y-114334762D01*
X187320000Y-114382381D01*
X187081905Y-114382381D01*
X187986667Y-113382381D02*
X188605715Y-113382381D01*
X188272381Y-113763333D01*
X188415239Y-113763333D01*
X188510477Y-113810952D01*
X188558096Y-113858571D01*
X188605715Y-113953810D01*
X188605715Y-114191905D01*
X188558096Y-114287143D01*
X188510477Y-114334762D01*
X188415239Y-114382381D01*
X188129524Y-114382381D01*
X188034286Y-114334762D01*
X187986667Y-114287143D01*
X173802381Y-95818095D02*
X172802381Y-95818095D01*
X172802381Y-95580000D01*
X172850000Y-95437142D01*
X172945238Y-95341904D01*
X173040476Y-95294285D01*
X173230952Y-95246666D01*
X173373810Y-95246666D01*
X173564286Y-95294285D01*
X173659524Y-95341904D01*
X173754762Y-95437142D01*
X173802381Y-95580000D01*
X173802381Y-95818095D01*
X173135714Y-94389523D02*
X173802381Y-94389523D01*
X172754762Y-94627619D02*
X173469048Y-94865714D01*
X173469048Y-94246666D01*
X177342381Y-103796190D02*
X176342381Y-103796190D01*
X177247143Y-102748571D02*
X177294762Y-102796190D01*
X177342381Y-102939047D01*
X177342381Y-103034285D01*
X177294762Y-103177143D01*
X177199524Y-103272381D01*
X177104286Y-103320000D01*
X176913810Y-103367619D01*
X176770952Y-103367619D01*
X176580476Y-103320000D01*
X176485238Y-103272381D01*
X176390000Y-103177143D01*
X176342381Y-103034285D01*
X176342381Y-102939047D01*
X176390000Y-102796190D01*
X176437619Y-102748571D01*
X177342381Y-101796190D02*
X177342381Y-102367619D01*
X177342381Y-102081905D02*
X176342381Y-102081905D01*
X176485238Y-102177143D01*
X176580476Y-102272381D01*
X176628095Y-102367619D01*
X178451905Y-97522381D02*
X178451905Y-96522381D01*
X178832858Y-96522381D01*
X178928096Y-96570000D01*
X178975715Y-96617619D01*
X179023334Y-96712857D01*
X179023334Y-96855714D01*
X178975715Y-96950952D01*
X178928096Y-96998571D01*
X178832858Y-97046190D01*
X178451905Y-97046190D01*
X179975715Y-97522381D02*
X179404286Y-97522381D01*
X179690000Y-97522381D02*
X179690000Y-96522381D01*
X179594762Y-96665238D01*
X179499524Y-96760476D01*
X179404286Y-96808095D01*
X170041905Y-109382381D02*
X170041905Y-108382381D01*
X170422858Y-108382381D01*
X170518096Y-108430000D01*
X170565715Y-108477619D01*
X170613334Y-108572857D01*
X170613334Y-108715714D01*
X170565715Y-108810952D01*
X170518096Y-108858571D01*
X170422858Y-108906190D01*
X170041905Y-108906190D01*
X170994286Y-108477619D02*
X171041905Y-108430000D01*
X171137143Y-108382381D01*
X171375239Y-108382381D01*
X171470477Y-108430000D01*
X171518096Y-108477619D01*
X171565715Y-108572857D01*
X171565715Y-108668095D01*
X171518096Y-108810952D01*
X170946667Y-109382381D01*
X171565715Y-109382381D01*
X164821905Y-117482381D02*
X164821905Y-116482381D01*
X165202858Y-116482381D01*
X165298096Y-116530000D01*
X165345715Y-116577619D01*
X165393334Y-116672857D01*
X165393334Y-116815714D01*
X165345715Y-116910952D01*
X165298096Y-116958571D01*
X165202858Y-117006190D01*
X164821905Y-117006190D01*
X165726667Y-116482381D02*
X166345715Y-116482381D01*
X166012381Y-116863333D01*
X166155239Y-116863333D01*
X166250477Y-116910952D01*
X166298096Y-116958571D01*
X166345715Y-117053810D01*
X166345715Y-117291905D01*
X166298096Y-117387143D01*
X166250477Y-117434762D01*
X166155239Y-117482381D01*
X165869524Y-117482381D01*
X165774286Y-117434762D01*
X165726667Y-117387143D01*
X160971905Y-117522381D02*
X160971905Y-116522381D01*
X161352858Y-116522381D01*
X161448096Y-116570000D01*
X161495715Y-116617619D01*
X161543334Y-116712857D01*
X161543334Y-116855714D01*
X161495715Y-116950952D01*
X161448096Y-116998571D01*
X161352858Y-117046190D01*
X160971905Y-117046190D01*
X162400477Y-116855714D02*
X162400477Y-117522381D01*
X162162381Y-116474762D02*
X161924286Y-117189048D01*
X162543334Y-117189048D01*
X156991905Y-117612381D02*
X156991905Y-116612381D01*
X157372858Y-116612381D01*
X157468096Y-116660000D01*
X157515715Y-116707619D01*
X157563334Y-116802857D01*
X157563334Y-116945714D01*
X157515715Y-117040952D01*
X157468096Y-117088571D01*
X157372858Y-117136190D01*
X156991905Y-117136190D01*
X158468096Y-116612381D02*
X157991905Y-116612381D01*
X157944286Y-117088571D01*
X157991905Y-117040952D01*
X158087143Y-116993333D01*
X158325239Y-116993333D01*
X158420477Y-117040952D01*
X158468096Y-117088571D01*
X158515715Y-117183810D01*
X158515715Y-117421905D01*
X158468096Y-117517143D01*
X158420477Y-117564762D01*
X158325239Y-117612381D01*
X158087143Y-117612381D01*
X157991905Y-117564762D01*
X157944286Y-117517143D01*
X164477619Y-107655238D02*
X164430000Y-107750476D01*
X164334762Y-107845714D01*
X164191905Y-107988571D01*
X164144286Y-108083810D01*
X164144286Y-108179048D01*
X164382381Y-108131429D02*
X164334762Y-108226667D01*
X164239524Y-108321905D01*
X164049048Y-108369524D01*
X163715714Y-108369524D01*
X163525238Y-108321905D01*
X163430000Y-108226667D01*
X163382381Y-108131429D01*
X163382381Y-107940952D01*
X163430000Y-107845714D01*
X163525238Y-107750476D01*
X163715714Y-107702857D01*
X164049048Y-107702857D01*
X164239524Y-107750476D01*
X164334762Y-107845714D01*
X164382381Y-107940952D01*
X164382381Y-108131429D01*
X164382381Y-106750476D02*
X164382381Y-107321905D01*
X164382381Y-107036191D02*
X163382381Y-107036191D01*
X163525238Y-107131429D01*
X163620476Y-107226667D01*
X163668095Y-107321905D01*
X159692381Y-106396666D02*
X159216190Y-106730000D01*
X159692381Y-106968095D02*
X158692381Y-106968095D01*
X158692381Y-106587142D01*
X158740000Y-106491904D01*
X158787619Y-106444285D01*
X158882857Y-106396666D01*
X159025714Y-106396666D01*
X159120952Y-106444285D01*
X159168571Y-106491904D01*
X159216190Y-106587142D01*
X159216190Y-106968095D01*
X159692381Y-105444285D02*
X159692381Y-106015714D01*
X159692381Y-105730000D02*
X158692381Y-105730000D01*
X158835238Y-105825238D01*
X158930476Y-105920476D01*
X158978095Y-106015714D01*
X159732381Y-109186666D02*
X159256190Y-109520000D01*
X159732381Y-109758095D02*
X158732381Y-109758095D01*
X158732381Y-109377142D01*
X158780000Y-109281904D01*
X158827619Y-109234285D01*
X158922857Y-109186666D01*
X159065714Y-109186666D01*
X159160952Y-109234285D01*
X159208571Y-109281904D01*
X159256190Y-109377142D01*
X159256190Y-109758095D01*
X158827619Y-108805714D02*
X158780000Y-108758095D01*
X158732381Y-108662857D01*
X158732381Y-108424761D01*
X158780000Y-108329523D01*
X158827619Y-108281904D01*
X158922857Y-108234285D01*
X159018095Y-108234285D01*
X159160952Y-108281904D01*
X159732381Y-108853333D01*
X159732381Y-108234285D01*
X159732381Y-103746666D02*
X159256190Y-104080000D01*
X159732381Y-104318095D02*
X158732381Y-104318095D01*
X158732381Y-103937142D01*
X158780000Y-103841904D01*
X158827619Y-103794285D01*
X158922857Y-103746666D01*
X159065714Y-103746666D01*
X159160952Y-103794285D01*
X159208571Y-103841904D01*
X159256190Y-103937142D01*
X159256190Y-104318095D01*
X158732381Y-103413333D02*
X158732381Y-102794285D01*
X159113333Y-103127619D01*
X159113333Y-102984761D01*
X159160952Y-102889523D01*
X159208571Y-102841904D01*
X159303810Y-102794285D01*
X159541905Y-102794285D01*
X159637143Y-102841904D01*
X159684762Y-102889523D01*
X159732381Y-102984761D01*
X159732381Y-103270476D01*
X159684762Y-103365714D01*
X159637143Y-103413333D01*
X186652381Y-108566666D02*
X186176190Y-108900000D01*
X186652381Y-109138095D02*
X185652381Y-109138095D01*
X185652381Y-108757142D01*
X185700000Y-108661904D01*
X185747619Y-108614285D01*
X185842857Y-108566666D01*
X185985714Y-108566666D01*
X186080952Y-108614285D01*
X186128571Y-108661904D01*
X186176190Y-108757142D01*
X186176190Y-109138095D01*
X185985714Y-107709523D02*
X186652381Y-107709523D01*
X185604762Y-107947619D02*
X186319048Y-108185714D01*
X186319048Y-107566666D01*
X175973334Y-114782381D02*
X175640000Y-114306190D01*
X175401905Y-114782381D02*
X175401905Y-113782381D01*
X175782858Y-113782381D01*
X175878096Y-113830000D01*
X175925715Y-113877619D01*
X175973334Y-113972857D01*
X175973334Y-114115714D01*
X175925715Y-114210952D01*
X175878096Y-114258571D01*
X175782858Y-114306190D01*
X175401905Y-114306190D01*
X176878096Y-113782381D02*
X176401905Y-113782381D01*
X176354286Y-114258571D01*
X176401905Y-114210952D01*
X176497143Y-114163333D01*
X176735239Y-114163333D01*
X176830477Y-114210952D01*
X176878096Y-114258571D01*
X176925715Y-114353810D01*
X176925715Y-114591905D01*
X176878096Y-114687143D01*
X176830477Y-114734762D01*
X176735239Y-114782381D01*
X176497143Y-114782381D01*
X176401905Y-114734762D01*
X176354286Y-114687143D01*
X186652381Y-105766666D02*
X186176190Y-106100000D01*
X186652381Y-106338095D02*
X185652381Y-106338095D01*
X185652381Y-105957142D01*
X185700000Y-105861904D01*
X185747619Y-105814285D01*
X185842857Y-105766666D01*
X185985714Y-105766666D01*
X186080952Y-105814285D01*
X186128571Y-105861904D01*
X186176190Y-105957142D01*
X186176190Y-106338095D01*
X185652381Y-104909523D02*
X185652381Y-105100000D01*
X185700000Y-105195238D01*
X185747619Y-105242857D01*
X185890476Y-105338095D01*
X186080952Y-105385714D01*
X186461905Y-105385714D01*
X186557143Y-105338095D01*
X186604762Y-105290476D01*
X186652381Y-105195238D01*
X186652381Y-105004761D01*
X186604762Y-104909523D01*
X186557143Y-104861904D01*
X186461905Y-104814285D01*
X186223810Y-104814285D01*
X186128571Y-104861904D01*
X186080952Y-104909523D01*
X186033333Y-105004761D01*
X186033333Y-105195238D01*
X186080952Y-105290476D01*
X186128571Y-105338095D01*
X186223810Y-105385714D01*
X182033334Y-114292381D02*
X181700000Y-113816190D01*
X181461905Y-114292381D02*
X181461905Y-113292381D01*
X181842858Y-113292381D01*
X181938096Y-113340000D01*
X181985715Y-113387619D01*
X182033334Y-113482857D01*
X182033334Y-113625714D01*
X181985715Y-113720952D01*
X181938096Y-113768571D01*
X181842858Y-113816190D01*
X181461905Y-113816190D01*
X182366667Y-113292381D02*
X183033334Y-113292381D01*
X182604762Y-114292381D01*
X169022381Y-98216666D02*
X168546190Y-98550000D01*
X169022381Y-98788095D02*
X168022381Y-98788095D01*
X168022381Y-98407142D01*
X168070000Y-98311904D01*
X168117619Y-98264285D01*
X168212857Y-98216666D01*
X168355714Y-98216666D01*
X168450952Y-98264285D01*
X168498571Y-98311904D01*
X168546190Y-98407142D01*
X168546190Y-98788095D01*
X168450952Y-97645238D02*
X168403333Y-97740476D01*
X168355714Y-97788095D01*
X168260476Y-97835714D01*
X168212857Y-97835714D01*
X168117619Y-97788095D01*
X168070000Y-97740476D01*
X168022381Y-97645238D01*
X168022381Y-97454761D01*
X168070000Y-97359523D01*
X168117619Y-97311904D01*
X168212857Y-97264285D01*
X168260476Y-97264285D01*
X168355714Y-97311904D01*
X168403333Y-97359523D01*
X168450952Y-97454761D01*
X168450952Y-97645238D01*
X168498571Y-97740476D01*
X168546190Y-97788095D01*
X168641429Y-97835714D01*
X168831905Y-97835714D01*
X168927143Y-97788095D01*
X168974762Y-97740476D01*
X169022381Y-97645238D01*
X169022381Y-97454761D01*
X168974762Y-97359523D01*
X168927143Y-97311904D01*
X168831905Y-97264285D01*
X168641429Y-97264285D01*
X168546190Y-97311904D01*
X168498571Y-97359523D01*
X168450952Y-97454761D01*
X186184762Y-99163333D02*
X186232381Y-99020476D01*
X186232381Y-98782380D01*
X186184762Y-98687142D01*
X186137143Y-98639523D01*
X186041905Y-98591904D01*
X185946667Y-98591904D01*
X185851429Y-98639523D01*
X185803810Y-98687142D01*
X185756190Y-98782380D01*
X185708571Y-98972857D01*
X185660952Y-99068095D01*
X185613333Y-99115714D01*
X185518095Y-99163333D01*
X185422857Y-99163333D01*
X185327619Y-99115714D01*
X185280000Y-99068095D01*
X185232381Y-98972857D01*
X185232381Y-98734761D01*
X185280000Y-98591904D01*
X185232381Y-98258571D02*
X186232381Y-98020476D01*
X185518095Y-97829999D01*
X186232381Y-97639523D01*
X185232381Y-97401428D01*
X185327619Y-97068095D02*
X185280000Y-97020476D01*
X185232381Y-96925238D01*
X185232381Y-96687142D01*
X185280000Y-96591904D01*
X185327619Y-96544285D01*
X185422857Y-96496666D01*
X185518095Y-96496666D01*
X185660952Y-96544285D01*
X186232381Y-97115714D01*
X186232381Y-96496666D01*
M02*
