G04 #@! TF.FileFunction,Copper,L2,Bot,Signal*
%FSLAX46Y46*%
G04 Gerber Fmt 4.6, Leading zero omitted, Abs format (unit mm)*
G04 Created by KiCad (PCBNEW (2015-11-17 BZR 6321)-product) date Tue 19 Jan 2016 02:12:06 PM EST*
%MOMM*%
G01*
G04 APERTURE LIST*
%ADD10C,0.100000*%
%ADD11C,1.905000*%
%ADD12R,2.032000X2.032000*%
%ADD13O,2.032000X2.032000*%
%ADD14R,1.727200X1.727200*%
%ADD15O,1.727200X1.727200*%
%ADD16C,0.600000*%
%ADD17C,0.500000*%
%ADD18C,0.254000*%
G04 APERTURE END LIST*
D10*
D11*
X181000000Y-106620000D03*
X181000000Y-104080000D03*
X181000000Y-101540000D03*
X181000000Y-99000000D03*
X173380000Y-99000000D03*
X173380000Y-101540000D03*
X173380000Y-104080000D03*
X173380000Y-106620000D03*
D12*
X180500000Y-95000000D03*
D13*
X177960000Y-95000000D03*
D14*
X169560000Y-111000000D03*
D15*
X172100000Y-111000000D03*
X169560000Y-113540000D03*
X172100000Y-113540000D03*
X169560000Y-116080000D03*
X172100000Y-116080000D03*
D12*
X165600000Y-115058273D03*
D13*
X165600000Y-112518273D03*
D12*
X161700000Y-115058273D03*
D13*
X161700000Y-112518273D03*
D12*
X157750000Y-115058273D03*
D13*
X157750000Y-112518273D03*
D12*
X168460000Y-94500000D03*
D13*
X171000000Y-94500000D03*
D16*
X188000000Y-98000000D03*
X186000000Y-98000000D03*
X171000000Y-101000000D03*
X165000000Y-101000000D03*
X176000000Y-104000000D03*
X179400000Y-109500000D03*
X177800000Y-112400000D03*
X180400000Y-116000000D03*
X176200000Y-113999979D03*
X159300000Y-100100000D03*
X169500000Y-108236366D03*
X171613118Y-108162465D03*
X171000000Y-103800000D03*
X167400000Y-104200000D03*
X168588223Y-100181089D03*
X180026255Y-112934432D03*
X184800000Y-113667337D03*
X186780344Y-103219656D03*
X186300000Y-106400000D03*
X186500000Y-108500000D03*
X187800000Y-104000000D03*
X175400000Y-110100000D03*
X173413601Y-110369471D03*
X178464162Y-109375151D03*
X174690995Y-108420304D03*
X171316607Y-107179618D03*
X169799978Y-107200000D03*
X170562647Y-107486346D03*
X183065252Y-105595672D03*
X180730344Y-112230344D03*
X184800000Y-102200000D03*
X163200000Y-98700000D03*
D17*
X181000000Y-99000000D02*
X185000000Y-99000000D01*
X185000000Y-99000000D02*
X186000000Y-98000000D01*
X186000000Y-98000000D02*
X188000000Y-98000000D01*
X171000000Y-94500000D02*
X171000000Y-101000000D01*
X171000000Y-94500000D02*
X169984001Y-95515999D01*
X169984001Y-95515999D02*
X169984001Y-96015999D01*
X169984001Y-96015999D02*
X165000000Y-101000000D01*
X179400000Y-109500000D02*
X179400000Y-100600000D01*
X179400000Y-100600000D02*
X181000000Y-99000000D01*
X178399979Y-113999979D02*
X178399979Y-112999979D01*
X178399979Y-112999979D02*
X177800000Y-112400000D01*
X176200000Y-113999979D02*
X178399979Y-113999979D01*
X178399979Y-113999979D02*
X180400000Y-116000000D01*
X171000000Y-93063160D02*
X170970839Y-93033999D01*
X171000000Y-94500000D02*
X171000000Y-93063160D01*
X170970839Y-93033999D02*
X166366001Y-93033999D01*
X166366001Y-93033999D02*
X159300000Y-100100000D01*
X177960000Y-95000000D02*
X177960000Y-96436840D01*
X177960000Y-96436840D02*
X180523160Y-99000000D01*
X180523160Y-99000000D02*
X181000000Y-99000000D01*
X180026255Y-112510168D02*
X180026255Y-112934432D01*
X177550024Y-110033937D02*
X180026255Y-112510168D01*
X177550024Y-109160090D02*
X177550024Y-110033937D01*
X175009934Y-106620000D02*
X177550024Y-109160090D01*
X173380000Y-106620000D02*
X175009934Y-106620000D01*
X173380000Y-106620000D02*
X171837535Y-108162465D01*
X171837535Y-108162465D02*
X171613118Y-108162465D01*
X172100000Y-111000000D02*
X172100000Y-110836366D01*
X172100000Y-110836366D02*
X169500000Y-108236366D01*
X171800000Y-104575703D02*
X171775703Y-104575703D01*
X171775703Y-104575703D02*
X171000000Y-103800000D01*
X167400000Y-103500000D02*
X167400000Y-104200000D01*
X168588223Y-102311777D02*
X167400000Y-103500000D01*
X168588223Y-100181089D02*
X168588223Y-102311777D01*
X173380000Y-106155703D02*
X171800000Y-104575703D01*
X173380000Y-106620000D02*
X173380000Y-106155703D01*
X186480345Y-103519655D02*
X186780344Y-103219656D01*
X186300000Y-103700000D02*
X186480345Y-103519655D01*
X186300000Y-106400000D02*
X186300000Y-103700000D01*
X187800000Y-104000000D02*
X187800000Y-107200000D01*
X187800000Y-107200000D02*
X186500000Y-108500000D01*
X175400000Y-110100000D02*
X174600000Y-110100000D01*
X174600000Y-110100000D02*
X174330529Y-110369471D01*
X174330529Y-110369471D02*
X173413601Y-110369471D01*
X178464162Y-108950887D02*
X178464162Y-109375151D01*
X178464162Y-104084162D02*
X178464162Y-108950887D01*
X173380000Y-99000000D02*
X178464162Y-104084162D01*
X168649998Y-108726398D02*
X168649998Y-104922964D01*
X172032962Y-101540000D02*
X173380000Y-101540000D01*
X168649998Y-104922964D02*
X172032962Y-101540000D01*
X169560000Y-111000000D02*
X169560000Y-109636400D01*
X169560000Y-109636400D02*
X168649998Y-108726398D01*
X174690995Y-115433135D02*
X174690995Y-111919009D01*
X172730529Y-117393601D02*
X174690995Y-115433135D01*
X174990994Y-108720303D02*
X174690995Y-108420304D01*
X175130307Y-108720303D02*
X174990994Y-108720303D01*
X176150002Y-109739998D02*
X175130307Y-108720303D01*
X176150002Y-110460002D02*
X176150002Y-109739998D01*
X174690995Y-111919009D02*
X176150002Y-110460002D01*
X167845328Y-117393601D02*
X172730529Y-117393601D01*
X166976001Y-116524274D02*
X167845328Y-117393601D01*
X159216001Y-116524274D02*
X166976001Y-116524274D01*
X166976001Y-116524274D02*
X168696401Y-114803874D01*
X168696401Y-114803874D02*
X168696401Y-114403599D01*
X168696401Y-114403599D02*
X169560000Y-113540000D01*
X157750000Y-115058273D02*
X159216001Y-116524274D01*
X171016608Y-106879619D02*
X171316607Y-107179618D01*
X170873333Y-106736344D02*
X171016608Y-106879619D01*
X169839370Y-106736344D02*
X170873333Y-106736344D01*
X169799978Y-107200000D02*
X169799978Y-106775736D01*
X169799978Y-106775736D02*
X169839370Y-106736344D01*
X171489974Y-109100010D02*
X170562647Y-108172683D01*
X179099990Y-112589986D02*
X176850013Y-110340009D01*
X176850013Y-110340009D02*
X176850013Y-109450044D01*
X170562647Y-108172683D02*
X170562647Y-107910610D01*
X170562647Y-107910610D02*
X170562647Y-107486346D01*
X172901285Y-109100010D02*
X171489974Y-109100010D01*
X174330993Y-107670302D02*
X172901285Y-109100010D01*
X175070271Y-107670302D02*
X174330993Y-107670302D01*
X176850013Y-109450044D02*
X175070271Y-107670302D01*
X179099990Y-113118171D02*
X179099990Y-112589986D01*
X179666253Y-113684434D02*
X179099990Y-113118171D01*
X180386257Y-113684434D02*
X179666253Y-113684434D01*
X183365251Y-110705440D02*
X180386257Y-113684434D01*
X183065252Y-105595672D02*
X183365251Y-105895671D01*
X183365251Y-105895671D02*
X183365251Y-110705440D01*
X182402501Y-105946799D02*
X182402501Y-110558187D01*
X181805702Y-105350000D02*
X182402501Y-105946799D01*
X184800000Y-102200000D02*
X184800000Y-102355702D01*
X182402501Y-110558187D02*
X180730344Y-112230344D01*
X184800000Y-102355702D02*
X181805702Y-105350000D01*
X163200000Y-98700000D02*
X167400000Y-94500000D01*
X167400000Y-94500000D02*
X168460000Y-94500000D01*
D18*
G36*
X188488338Y-92821046D02*
X188902333Y-93097669D01*
X189178953Y-93511660D01*
X189290000Y-94069931D01*
X189290000Y-115930069D01*
X189178953Y-116488340D01*
X188902333Y-116902331D01*
X188488338Y-117178954D01*
X187930069Y-117290000D01*
X174085710Y-117290000D01*
X175316782Y-116058927D01*
X175316785Y-116058925D01*
X175508628Y-115771810D01*
X175508629Y-115771809D01*
X175575996Y-115433135D01*
X175575995Y-115433130D01*
X175575995Y-112285589D01*
X176560004Y-111301579D01*
X178214990Y-112956565D01*
X178214990Y-113118166D01*
X178214989Y-113118171D01*
X178270022Y-113394833D01*
X178282357Y-113456846D01*
X178462616Y-113726624D01*
X178474200Y-113743961D01*
X179040461Y-114310221D01*
X179040463Y-114310224D01*
X179327578Y-114502067D01*
X179383769Y-114513244D01*
X179666253Y-114569435D01*
X179666258Y-114569434D01*
X180386252Y-114569434D01*
X180386257Y-114569435D01*
X180668741Y-114513244D01*
X180724932Y-114502067D01*
X181012047Y-114310224D01*
X181469766Y-113852504D01*
X183864838Y-113852504D01*
X184006883Y-114196280D01*
X184269673Y-114459529D01*
X184613201Y-114602175D01*
X184985167Y-114602499D01*
X185328943Y-114460454D01*
X185592192Y-114197664D01*
X185734838Y-113854136D01*
X185735162Y-113482170D01*
X185593117Y-113138394D01*
X185330327Y-112875145D01*
X184986799Y-112732499D01*
X184614833Y-112732175D01*
X184271057Y-112874220D01*
X184007808Y-113137010D01*
X183865162Y-113480538D01*
X183864838Y-113852504D01*
X181469766Y-113852504D01*
X183991038Y-111331232D01*
X183991041Y-111331230D01*
X184182884Y-111044115D01*
X184213104Y-110892192D01*
X184250252Y-110705440D01*
X184250251Y-110705435D01*
X184250251Y-106585167D01*
X185364838Y-106585167D01*
X185506883Y-106928943D01*
X185769673Y-107192192D01*
X186113201Y-107334838D01*
X186413321Y-107335099D01*
X186091164Y-107657256D01*
X185971057Y-107706883D01*
X185707808Y-107969673D01*
X185565162Y-108313201D01*
X185564838Y-108685167D01*
X185706883Y-109028943D01*
X185969673Y-109292192D01*
X186313201Y-109434838D01*
X186685167Y-109435162D01*
X187028943Y-109293117D01*
X187292192Y-109030327D01*
X187342566Y-108909014D01*
X188425787Y-107825792D01*
X188425790Y-107825790D01*
X188617633Y-107538675D01*
X188644914Y-107401526D01*
X188685001Y-107200000D01*
X188685000Y-107199995D01*
X188685000Y-104306822D01*
X188734838Y-104186799D01*
X188735162Y-103814833D01*
X188593117Y-103471057D01*
X188330327Y-103207808D01*
X187986799Y-103065162D01*
X187715479Y-103064926D01*
X187715506Y-103034489D01*
X187573461Y-102690713D01*
X187310671Y-102427464D01*
X186967143Y-102284818D01*
X186595177Y-102284494D01*
X186251401Y-102426539D01*
X185988152Y-102689329D01*
X185937778Y-102810642D01*
X185854555Y-102893865D01*
X185854553Y-102893868D01*
X185674210Y-103074210D01*
X185482367Y-103361325D01*
X185482367Y-103361326D01*
X185414999Y-103700000D01*
X185415000Y-103700005D01*
X185415000Y-106093178D01*
X185365162Y-106213201D01*
X185364838Y-106585167D01*
X184250251Y-106585167D01*
X184250251Y-105895676D01*
X184250252Y-105895671D01*
X184182884Y-105556997D01*
X184182884Y-105556996D01*
X183991041Y-105269881D01*
X183991038Y-105269879D01*
X183907997Y-105186837D01*
X183858369Y-105066729D01*
X183599687Y-104807595D01*
X185425787Y-102981494D01*
X185425790Y-102981492D01*
X185617633Y-102694377D01*
X185627300Y-102645778D01*
X185734838Y-102386799D01*
X185735162Y-102014833D01*
X185593117Y-101671057D01*
X185330327Y-101407808D01*
X184986799Y-101265162D01*
X184614833Y-101264838D01*
X184271057Y-101406883D01*
X184007808Y-101669673D01*
X183865162Y-102013201D01*
X183865140Y-102038983D01*
X182456418Y-103447704D01*
X182346602Y-103181928D01*
X181975065Y-102809743D01*
X182345032Y-102440421D01*
X182587224Y-101857159D01*
X182587775Y-101225612D01*
X182346602Y-100641928D01*
X181908471Y-100203032D01*
X181938554Y-100118159D01*
X181000000Y-99179605D01*
X180061446Y-100118159D01*
X180091725Y-100203583D01*
X179654968Y-100639579D01*
X179412776Y-101222841D01*
X179412225Y-101854388D01*
X179653398Y-102438072D01*
X180024935Y-102810257D01*
X179654968Y-103179579D01*
X179412776Y-103762841D01*
X179412225Y-104394388D01*
X179653398Y-104978072D01*
X180024935Y-105350257D01*
X179654968Y-105719579D01*
X179412776Y-106302841D01*
X179412225Y-106934388D01*
X179653398Y-107518072D01*
X180099579Y-107965032D01*
X180682841Y-108207224D01*
X181314388Y-108207775D01*
X181517501Y-108123851D01*
X181517501Y-110191608D01*
X180321508Y-111387600D01*
X180203872Y-111436206D01*
X178952650Y-110184984D01*
X178993105Y-110168268D01*
X179256354Y-109905478D01*
X179399000Y-109561950D01*
X179399324Y-109189984D01*
X179349162Y-109068582D01*
X179349162Y-104084167D01*
X179349163Y-104084162D01*
X179281795Y-103745488D01*
X179281795Y-103745487D01*
X179089952Y-103458372D01*
X179089949Y-103458370D01*
X174961800Y-99330221D01*
X174967224Y-99317159D01*
X174967721Y-98746801D01*
X179401325Y-98746801D01*
X179426122Y-99377861D01*
X179619912Y-99845712D01*
X179881841Y-99938554D01*
X180820395Y-99000000D01*
X181179605Y-99000000D01*
X182118159Y-99938554D01*
X182380088Y-99845712D01*
X182598675Y-99253199D01*
X182573878Y-98622139D01*
X182380088Y-98154288D01*
X182118159Y-98061446D01*
X181179605Y-99000000D01*
X180820395Y-99000000D01*
X179881841Y-98061446D01*
X179619912Y-98154288D01*
X179401325Y-98746801D01*
X174967721Y-98746801D01*
X174967775Y-98685612D01*
X174726602Y-98101928D01*
X174506899Y-97881841D01*
X180061446Y-97881841D01*
X181000000Y-98820395D01*
X181938554Y-97881841D01*
X181845712Y-97619912D01*
X181253199Y-97401325D01*
X180622139Y-97426122D01*
X180154288Y-97619912D01*
X180061446Y-97881841D01*
X174506899Y-97881841D01*
X174280421Y-97654968D01*
X173697159Y-97412776D01*
X173065612Y-97412225D01*
X172481928Y-97653398D01*
X172034968Y-98099579D01*
X171792776Y-98682841D01*
X171792225Y-99314388D01*
X172033398Y-99898072D01*
X172404935Y-100270257D01*
X172034968Y-100639579D01*
X172028169Y-100655952D01*
X171694288Y-100722366D01*
X171694286Y-100722367D01*
X171694287Y-100722367D01*
X171407172Y-100914210D01*
X171407170Y-100914213D01*
X168326796Y-103994586D01*
X168285000Y-103893431D01*
X168285000Y-103866580D01*
X169214010Y-102937569D01*
X169214013Y-102937567D01*
X169405856Y-102650452D01*
X169437220Y-102492776D01*
X169473224Y-102311777D01*
X169473223Y-102311772D01*
X169473223Y-100487911D01*
X169523061Y-100367888D01*
X169523385Y-99995922D01*
X169381340Y-99652146D01*
X169118550Y-99388897D01*
X168775022Y-99246251D01*
X168403056Y-99245927D01*
X168059280Y-99387972D01*
X167796031Y-99650762D01*
X167653385Y-99994290D01*
X167653061Y-100366256D01*
X167703223Y-100487658D01*
X167703223Y-101945198D01*
X166774210Y-102874210D01*
X166582367Y-103161325D01*
X166575315Y-103196777D01*
X166514999Y-103500000D01*
X166515000Y-103500005D01*
X166515000Y-103893178D01*
X166465162Y-104013201D01*
X166464838Y-104385167D01*
X166606883Y-104728943D01*
X166869673Y-104992192D01*
X167213201Y-105134838D01*
X167585167Y-105135162D01*
X167764998Y-105060858D01*
X167764998Y-108726393D01*
X167764997Y-108726398D01*
X167809601Y-108950631D01*
X167832365Y-109065073D01*
X168001119Y-109317633D01*
X168024208Y-109352188D01*
X168305423Y-109633403D01*
X168244959Y-109672310D01*
X168099969Y-109884510D01*
X168048960Y-110136400D01*
X168048960Y-111863600D01*
X168093238Y-112098917D01*
X168232310Y-112315041D01*
X168444510Y-112460031D01*
X168488131Y-112468864D01*
X168470971Y-112480330D01*
X168146115Y-112966511D01*
X168032041Y-113540000D01*
X168077895Y-113770525D01*
X168070611Y-113777809D01*
X167878768Y-114064924D01*
X167878768Y-114064925D01*
X167811400Y-114403599D01*
X167811401Y-114403604D01*
X167811401Y-114437295D01*
X167263440Y-114985256D01*
X167263440Y-114042273D01*
X167219162Y-113806956D01*
X167080090Y-113590832D01*
X166931163Y-113489075D01*
X167157670Y-113150083D01*
X167283345Y-112518273D01*
X167157670Y-111886463D01*
X166799778Y-111350840D01*
X166264155Y-110992948D01*
X165632345Y-110867273D01*
X165567655Y-110867273D01*
X164935845Y-110992948D01*
X164400222Y-111350840D01*
X164042330Y-111886463D01*
X163916655Y-112518273D01*
X164042330Y-113150083D01*
X164269499Y-113490065D01*
X164132559Y-113578183D01*
X163987569Y-113790383D01*
X163936560Y-114042273D01*
X163936560Y-115639274D01*
X163363440Y-115639274D01*
X163363440Y-114042273D01*
X163319162Y-113806956D01*
X163180090Y-113590832D01*
X163031163Y-113489075D01*
X163257670Y-113150083D01*
X163383345Y-112518273D01*
X163257670Y-111886463D01*
X162899778Y-111350840D01*
X162364155Y-110992948D01*
X161732345Y-110867273D01*
X161667655Y-110867273D01*
X161035845Y-110992948D01*
X160500222Y-111350840D01*
X160142330Y-111886463D01*
X160016655Y-112518273D01*
X160142330Y-113150083D01*
X160369499Y-113490065D01*
X160232559Y-113578183D01*
X160087569Y-113790383D01*
X160036560Y-114042273D01*
X160036560Y-115639274D01*
X159582580Y-115639274D01*
X159413440Y-115470134D01*
X159413440Y-114042273D01*
X159369162Y-113806956D01*
X159230090Y-113590832D01*
X159081163Y-113489075D01*
X159307670Y-113150083D01*
X159433345Y-112518273D01*
X159307670Y-111886463D01*
X158949778Y-111350840D01*
X158414155Y-110992948D01*
X157782345Y-110867273D01*
X157717655Y-110867273D01*
X157085845Y-110992948D01*
X156550222Y-111350840D01*
X156192330Y-111886463D01*
X156066655Y-112518273D01*
X156192330Y-113150083D01*
X156419499Y-113490065D01*
X156282559Y-113578183D01*
X156137569Y-113790383D01*
X156086560Y-114042273D01*
X156086560Y-116074273D01*
X156130838Y-116309590D01*
X156269910Y-116525714D01*
X156482110Y-116670704D01*
X156734000Y-116721713D01*
X158161861Y-116721713D01*
X158590209Y-117150061D01*
X158590211Y-117150064D01*
X158799641Y-117290000D01*
X157069931Y-117290000D01*
X156511660Y-117178953D01*
X156097669Y-116902333D01*
X155821046Y-116488338D01*
X155710000Y-115930069D01*
X155710000Y-98885167D01*
X162264838Y-98885167D01*
X162406883Y-99228943D01*
X162669673Y-99492192D01*
X163013201Y-99634838D01*
X163385167Y-99635162D01*
X163728943Y-99493117D01*
X163992192Y-99230327D01*
X164042566Y-99109014D01*
X167101238Y-96050341D01*
X167192110Y-96112431D01*
X167444000Y-96163440D01*
X169476000Y-96163440D01*
X169711317Y-96119162D01*
X169927441Y-95980090D01*
X170038840Y-95817052D01*
X170135182Y-95906385D01*
X170617056Y-96105975D01*
X170873000Y-95986836D01*
X170873000Y-94627000D01*
X171127000Y-94627000D01*
X171127000Y-95986836D01*
X171382944Y-96105975D01*
X171864818Y-95906385D01*
X172337188Y-95468379D01*
X172376413Y-95382946D01*
X176354017Y-95382946D01*
X176622812Y-95968379D01*
X177095182Y-96406385D01*
X177577056Y-96605975D01*
X177833000Y-96486836D01*
X177833000Y-95127000D01*
X176472633Y-95127000D01*
X176354017Y-95382946D01*
X172376413Y-95382946D01*
X172605983Y-94882946D01*
X172487367Y-94627000D01*
X171127000Y-94627000D01*
X170873000Y-94627000D01*
X170853000Y-94627000D01*
X170853000Y-94617054D01*
X176354017Y-94617054D01*
X176472633Y-94873000D01*
X177833000Y-94873000D01*
X177833000Y-93513164D01*
X178087000Y-93513164D01*
X178087000Y-94873000D01*
X178107000Y-94873000D01*
X178107000Y-95127000D01*
X178087000Y-95127000D01*
X178087000Y-96486836D01*
X178342944Y-96605975D01*
X178824818Y-96406385D01*
X178922398Y-96315903D01*
X179019910Y-96467441D01*
X179232110Y-96612431D01*
X179484000Y-96663440D01*
X181516000Y-96663440D01*
X181751317Y-96619162D01*
X181967441Y-96480090D01*
X182112431Y-96267890D01*
X182163440Y-96016000D01*
X182163440Y-93984000D01*
X182119162Y-93748683D01*
X181980090Y-93532559D01*
X181767890Y-93387569D01*
X181516000Y-93336560D01*
X179484000Y-93336560D01*
X179248683Y-93380838D01*
X179032559Y-93519910D01*
X178921160Y-93682948D01*
X178824818Y-93593615D01*
X178342944Y-93394025D01*
X178087000Y-93513164D01*
X177833000Y-93513164D01*
X177577056Y-93394025D01*
X177095182Y-93593615D01*
X176622812Y-94031621D01*
X176354017Y-94617054D01*
X170853000Y-94617054D01*
X170853000Y-94373000D01*
X170873000Y-94373000D01*
X170873000Y-93013164D01*
X171127000Y-93013164D01*
X171127000Y-94373000D01*
X172487367Y-94373000D01*
X172605983Y-94117054D01*
X172337188Y-93531621D01*
X171864818Y-93093615D01*
X171382944Y-92894025D01*
X171127000Y-93013164D01*
X170873000Y-93013164D01*
X170617056Y-92894025D01*
X170135182Y-93093615D01*
X170037602Y-93184097D01*
X169940090Y-93032559D01*
X169727890Y-92887569D01*
X169476000Y-92836560D01*
X167444000Y-92836560D01*
X167208683Y-92880838D01*
X166992559Y-93019910D01*
X166847569Y-93232110D01*
X166796560Y-93484000D01*
X166796560Y-93859276D01*
X166774210Y-93874210D01*
X166774208Y-93874213D01*
X162791164Y-97857256D01*
X162671057Y-97906883D01*
X162407808Y-98169673D01*
X162265162Y-98513201D01*
X162264838Y-98885167D01*
X155710000Y-98885167D01*
X155710000Y-95214873D01*
X157664812Y-95214873D01*
X157829646Y-95613800D01*
X158134595Y-95919282D01*
X158533233Y-96084811D01*
X158964873Y-96085188D01*
X159363800Y-95920354D01*
X159669282Y-95615405D01*
X159834811Y-95216767D01*
X159834812Y-95214873D01*
X160664812Y-95214873D01*
X160829646Y-95613800D01*
X161134595Y-95919282D01*
X161533233Y-96084811D01*
X161964873Y-96085188D01*
X162363800Y-95920354D01*
X162669282Y-95615405D01*
X162834811Y-95216767D01*
X162835188Y-94785127D01*
X162670354Y-94386200D01*
X162365405Y-94080718D01*
X161966767Y-93915189D01*
X161535127Y-93914812D01*
X161136200Y-94079646D01*
X160830718Y-94384595D01*
X160665189Y-94783233D01*
X160664812Y-95214873D01*
X159834812Y-95214873D01*
X159835188Y-94785127D01*
X159670354Y-94386200D01*
X159365405Y-94080718D01*
X158966767Y-93915189D01*
X158535127Y-93914812D01*
X158136200Y-94079646D01*
X157830718Y-94384595D01*
X157665189Y-94783233D01*
X157664812Y-95214873D01*
X155710000Y-95214873D01*
X155710000Y-94069931D01*
X155821046Y-93511662D01*
X156097669Y-93097667D01*
X156511660Y-92821047D01*
X157069931Y-92710000D01*
X187930069Y-92710000D01*
X188488338Y-92821046D01*
X188488338Y-92821046D01*
G37*
X188488338Y-92821046D02*
X188902333Y-93097669D01*
X189178953Y-93511660D01*
X189290000Y-94069931D01*
X189290000Y-115930069D01*
X189178953Y-116488340D01*
X188902333Y-116902331D01*
X188488338Y-117178954D01*
X187930069Y-117290000D01*
X174085710Y-117290000D01*
X175316782Y-116058927D01*
X175316785Y-116058925D01*
X175508628Y-115771810D01*
X175508629Y-115771809D01*
X175575996Y-115433135D01*
X175575995Y-115433130D01*
X175575995Y-112285589D01*
X176560004Y-111301579D01*
X178214990Y-112956565D01*
X178214990Y-113118166D01*
X178214989Y-113118171D01*
X178270022Y-113394833D01*
X178282357Y-113456846D01*
X178462616Y-113726624D01*
X178474200Y-113743961D01*
X179040461Y-114310221D01*
X179040463Y-114310224D01*
X179327578Y-114502067D01*
X179383769Y-114513244D01*
X179666253Y-114569435D01*
X179666258Y-114569434D01*
X180386252Y-114569434D01*
X180386257Y-114569435D01*
X180668741Y-114513244D01*
X180724932Y-114502067D01*
X181012047Y-114310224D01*
X181469766Y-113852504D01*
X183864838Y-113852504D01*
X184006883Y-114196280D01*
X184269673Y-114459529D01*
X184613201Y-114602175D01*
X184985167Y-114602499D01*
X185328943Y-114460454D01*
X185592192Y-114197664D01*
X185734838Y-113854136D01*
X185735162Y-113482170D01*
X185593117Y-113138394D01*
X185330327Y-112875145D01*
X184986799Y-112732499D01*
X184614833Y-112732175D01*
X184271057Y-112874220D01*
X184007808Y-113137010D01*
X183865162Y-113480538D01*
X183864838Y-113852504D01*
X181469766Y-113852504D01*
X183991038Y-111331232D01*
X183991041Y-111331230D01*
X184182884Y-111044115D01*
X184213104Y-110892192D01*
X184250252Y-110705440D01*
X184250251Y-110705435D01*
X184250251Y-106585167D01*
X185364838Y-106585167D01*
X185506883Y-106928943D01*
X185769673Y-107192192D01*
X186113201Y-107334838D01*
X186413321Y-107335099D01*
X186091164Y-107657256D01*
X185971057Y-107706883D01*
X185707808Y-107969673D01*
X185565162Y-108313201D01*
X185564838Y-108685167D01*
X185706883Y-109028943D01*
X185969673Y-109292192D01*
X186313201Y-109434838D01*
X186685167Y-109435162D01*
X187028943Y-109293117D01*
X187292192Y-109030327D01*
X187342566Y-108909014D01*
X188425787Y-107825792D01*
X188425790Y-107825790D01*
X188617633Y-107538675D01*
X188644914Y-107401526D01*
X188685001Y-107200000D01*
X188685000Y-107199995D01*
X188685000Y-104306822D01*
X188734838Y-104186799D01*
X188735162Y-103814833D01*
X188593117Y-103471057D01*
X188330327Y-103207808D01*
X187986799Y-103065162D01*
X187715479Y-103064926D01*
X187715506Y-103034489D01*
X187573461Y-102690713D01*
X187310671Y-102427464D01*
X186967143Y-102284818D01*
X186595177Y-102284494D01*
X186251401Y-102426539D01*
X185988152Y-102689329D01*
X185937778Y-102810642D01*
X185854555Y-102893865D01*
X185854553Y-102893868D01*
X185674210Y-103074210D01*
X185482367Y-103361325D01*
X185482367Y-103361326D01*
X185414999Y-103700000D01*
X185415000Y-103700005D01*
X185415000Y-106093178D01*
X185365162Y-106213201D01*
X185364838Y-106585167D01*
X184250251Y-106585167D01*
X184250251Y-105895676D01*
X184250252Y-105895671D01*
X184182884Y-105556997D01*
X184182884Y-105556996D01*
X183991041Y-105269881D01*
X183991038Y-105269879D01*
X183907997Y-105186837D01*
X183858369Y-105066729D01*
X183599687Y-104807595D01*
X185425787Y-102981494D01*
X185425790Y-102981492D01*
X185617633Y-102694377D01*
X185627300Y-102645778D01*
X185734838Y-102386799D01*
X185735162Y-102014833D01*
X185593117Y-101671057D01*
X185330327Y-101407808D01*
X184986799Y-101265162D01*
X184614833Y-101264838D01*
X184271057Y-101406883D01*
X184007808Y-101669673D01*
X183865162Y-102013201D01*
X183865140Y-102038983D01*
X182456418Y-103447704D01*
X182346602Y-103181928D01*
X181975065Y-102809743D01*
X182345032Y-102440421D01*
X182587224Y-101857159D01*
X182587775Y-101225612D01*
X182346602Y-100641928D01*
X181908471Y-100203032D01*
X181938554Y-100118159D01*
X181000000Y-99179605D01*
X180061446Y-100118159D01*
X180091725Y-100203583D01*
X179654968Y-100639579D01*
X179412776Y-101222841D01*
X179412225Y-101854388D01*
X179653398Y-102438072D01*
X180024935Y-102810257D01*
X179654968Y-103179579D01*
X179412776Y-103762841D01*
X179412225Y-104394388D01*
X179653398Y-104978072D01*
X180024935Y-105350257D01*
X179654968Y-105719579D01*
X179412776Y-106302841D01*
X179412225Y-106934388D01*
X179653398Y-107518072D01*
X180099579Y-107965032D01*
X180682841Y-108207224D01*
X181314388Y-108207775D01*
X181517501Y-108123851D01*
X181517501Y-110191608D01*
X180321508Y-111387600D01*
X180203872Y-111436206D01*
X178952650Y-110184984D01*
X178993105Y-110168268D01*
X179256354Y-109905478D01*
X179399000Y-109561950D01*
X179399324Y-109189984D01*
X179349162Y-109068582D01*
X179349162Y-104084167D01*
X179349163Y-104084162D01*
X179281795Y-103745488D01*
X179281795Y-103745487D01*
X179089952Y-103458372D01*
X179089949Y-103458370D01*
X174961800Y-99330221D01*
X174967224Y-99317159D01*
X174967721Y-98746801D01*
X179401325Y-98746801D01*
X179426122Y-99377861D01*
X179619912Y-99845712D01*
X179881841Y-99938554D01*
X180820395Y-99000000D01*
X181179605Y-99000000D01*
X182118159Y-99938554D01*
X182380088Y-99845712D01*
X182598675Y-99253199D01*
X182573878Y-98622139D01*
X182380088Y-98154288D01*
X182118159Y-98061446D01*
X181179605Y-99000000D01*
X180820395Y-99000000D01*
X179881841Y-98061446D01*
X179619912Y-98154288D01*
X179401325Y-98746801D01*
X174967721Y-98746801D01*
X174967775Y-98685612D01*
X174726602Y-98101928D01*
X174506899Y-97881841D01*
X180061446Y-97881841D01*
X181000000Y-98820395D01*
X181938554Y-97881841D01*
X181845712Y-97619912D01*
X181253199Y-97401325D01*
X180622139Y-97426122D01*
X180154288Y-97619912D01*
X180061446Y-97881841D01*
X174506899Y-97881841D01*
X174280421Y-97654968D01*
X173697159Y-97412776D01*
X173065612Y-97412225D01*
X172481928Y-97653398D01*
X172034968Y-98099579D01*
X171792776Y-98682841D01*
X171792225Y-99314388D01*
X172033398Y-99898072D01*
X172404935Y-100270257D01*
X172034968Y-100639579D01*
X172028169Y-100655952D01*
X171694288Y-100722366D01*
X171694286Y-100722367D01*
X171694287Y-100722367D01*
X171407172Y-100914210D01*
X171407170Y-100914213D01*
X168326796Y-103994586D01*
X168285000Y-103893431D01*
X168285000Y-103866580D01*
X169214010Y-102937569D01*
X169214013Y-102937567D01*
X169405856Y-102650452D01*
X169437220Y-102492776D01*
X169473224Y-102311777D01*
X169473223Y-102311772D01*
X169473223Y-100487911D01*
X169523061Y-100367888D01*
X169523385Y-99995922D01*
X169381340Y-99652146D01*
X169118550Y-99388897D01*
X168775022Y-99246251D01*
X168403056Y-99245927D01*
X168059280Y-99387972D01*
X167796031Y-99650762D01*
X167653385Y-99994290D01*
X167653061Y-100366256D01*
X167703223Y-100487658D01*
X167703223Y-101945198D01*
X166774210Y-102874210D01*
X166582367Y-103161325D01*
X166575315Y-103196777D01*
X166514999Y-103500000D01*
X166515000Y-103500005D01*
X166515000Y-103893178D01*
X166465162Y-104013201D01*
X166464838Y-104385167D01*
X166606883Y-104728943D01*
X166869673Y-104992192D01*
X167213201Y-105134838D01*
X167585167Y-105135162D01*
X167764998Y-105060858D01*
X167764998Y-108726393D01*
X167764997Y-108726398D01*
X167809601Y-108950631D01*
X167832365Y-109065073D01*
X168001119Y-109317633D01*
X168024208Y-109352188D01*
X168305423Y-109633403D01*
X168244959Y-109672310D01*
X168099969Y-109884510D01*
X168048960Y-110136400D01*
X168048960Y-111863600D01*
X168093238Y-112098917D01*
X168232310Y-112315041D01*
X168444510Y-112460031D01*
X168488131Y-112468864D01*
X168470971Y-112480330D01*
X168146115Y-112966511D01*
X168032041Y-113540000D01*
X168077895Y-113770525D01*
X168070611Y-113777809D01*
X167878768Y-114064924D01*
X167878768Y-114064925D01*
X167811400Y-114403599D01*
X167811401Y-114403604D01*
X167811401Y-114437295D01*
X167263440Y-114985256D01*
X167263440Y-114042273D01*
X167219162Y-113806956D01*
X167080090Y-113590832D01*
X166931163Y-113489075D01*
X167157670Y-113150083D01*
X167283345Y-112518273D01*
X167157670Y-111886463D01*
X166799778Y-111350840D01*
X166264155Y-110992948D01*
X165632345Y-110867273D01*
X165567655Y-110867273D01*
X164935845Y-110992948D01*
X164400222Y-111350840D01*
X164042330Y-111886463D01*
X163916655Y-112518273D01*
X164042330Y-113150083D01*
X164269499Y-113490065D01*
X164132559Y-113578183D01*
X163987569Y-113790383D01*
X163936560Y-114042273D01*
X163936560Y-115639274D01*
X163363440Y-115639274D01*
X163363440Y-114042273D01*
X163319162Y-113806956D01*
X163180090Y-113590832D01*
X163031163Y-113489075D01*
X163257670Y-113150083D01*
X163383345Y-112518273D01*
X163257670Y-111886463D01*
X162899778Y-111350840D01*
X162364155Y-110992948D01*
X161732345Y-110867273D01*
X161667655Y-110867273D01*
X161035845Y-110992948D01*
X160500222Y-111350840D01*
X160142330Y-111886463D01*
X160016655Y-112518273D01*
X160142330Y-113150083D01*
X160369499Y-113490065D01*
X160232559Y-113578183D01*
X160087569Y-113790383D01*
X160036560Y-114042273D01*
X160036560Y-115639274D01*
X159582580Y-115639274D01*
X159413440Y-115470134D01*
X159413440Y-114042273D01*
X159369162Y-113806956D01*
X159230090Y-113590832D01*
X159081163Y-113489075D01*
X159307670Y-113150083D01*
X159433345Y-112518273D01*
X159307670Y-111886463D01*
X158949778Y-111350840D01*
X158414155Y-110992948D01*
X157782345Y-110867273D01*
X157717655Y-110867273D01*
X157085845Y-110992948D01*
X156550222Y-111350840D01*
X156192330Y-111886463D01*
X156066655Y-112518273D01*
X156192330Y-113150083D01*
X156419499Y-113490065D01*
X156282559Y-113578183D01*
X156137569Y-113790383D01*
X156086560Y-114042273D01*
X156086560Y-116074273D01*
X156130838Y-116309590D01*
X156269910Y-116525714D01*
X156482110Y-116670704D01*
X156734000Y-116721713D01*
X158161861Y-116721713D01*
X158590209Y-117150061D01*
X158590211Y-117150064D01*
X158799641Y-117290000D01*
X157069931Y-117290000D01*
X156511660Y-117178953D01*
X156097669Y-116902333D01*
X155821046Y-116488338D01*
X155710000Y-115930069D01*
X155710000Y-98885167D01*
X162264838Y-98885167D01*
X162406883Y-99228943D01*
X162669673Y-99492192D01*
X163013201Y-99634838D01*
X163385167Y-99635162D01*
X163728943Y-99493117D01*
X163992192Y-99230327D01*
X164042566Y-99109014D01*
X167101238Y-96050341D01*
X167192110Y-96112431D01*
X167444000Y-96163440D01*
X169476000Y-96163440D01*
X169711317Y-96119162D01*
X169927441Y-95980090D01*
X170038840Y-95817052D01*
X170135182Y-95906385D01*
X170617056Y-96105975D01*
X170873000Y-95986836D01*
X170873000Y-94627000D01*
X171127000Y-94627000D01*
X171127000Y-95986836D01*
X171382944Y-96105975D01*
X171864818Y-95906385D01*
X172337188Y-95468379D01*
X172376413Y-95382946D01*
X176354017Y-95382946D01*
X176622812Y-95968379D01*
X177095182Y-96406385D01*
X177577056Y-96605975D01*
X177833000Y-96486836D01*
X177833000Y-95127000D01*
X176472633Y-95127000D01*
X176354017Y-95382946D01*
X172376413Y-95382946D01*
X172605983Y-94882946D01*
X172487367Y-94627000D01*
X171127000Y-94627000D01*
X170873000Y-94627000D01*
X170853000Y-94627000D01*
X170853000Y-94617054D01*
X176354017Y-94617054D01*
X176472633Y-94873000D01*
X177833000Y-94873000D01*
X177833000Y-93513164D01*
X178087000Y-93513164D01*
X178087000Y-94873000D01*
X178107000Y-94873000D01*
X178107000Y-95127000D01*
X178087000Y-95127000D01*
X178087000Y-96486836D01*
X178342944Y-96605975D01*
X178824818Y-96406385D01*
X178922398Y-96315903D01*
X179019910Y-96467441D01*
X179232110Y-96612431D01*
X179484000Y-96663440D01*
X181516000Y-96663440D01*
X181751317Y-96619162D01*
X181967441Y-96480090D01*
X182112431Y-96267890D01*
X182163440Y-96016000D01*
X182163440Y-93984000D01*
X182119162Y-93748683D01*
X181980090Y-93532559D01*
X181767890Y-93387569D01*
X181516000Y-93336560D01*
X179484000Y-93336560D01*
X179248683Y-93380838D01*
X179032559Y-93519910D01*
X178921160Y-93682948D01*
X178824818Y-93593615D01*
X178342944Y-93394025D01*
X178087000Y-93513164D01*
X177833000Y-93513164D01*
X177577056Y-93394025D01*
X177095182Y-93593615D01*
X176622812Y-94031621D01*
X176354017Y-94617054D01*
X170853000Y-94617054D01*
X170853000Y-94373000D01*
X170873000Y-94373000D01*
X170873000Y-93013164D01*
X171127000Y-93013164D01*
X171127000Y-94373000D01*
X172487367Y-94373000D01*
X172605983Y-94117054D01*
X172337188Y-93531621D01*
X171864818Y-93093615D01*
X171382944Y-92894025D01*
X171127000Y-93013164D01*
X170873000Y-93013164D01*
X170617056Y-92894025D01*
X170135182Y-93093615D01*
X170037602Y-93184097D01*
X169940090Y-93032559D01*
X169727890Y-92887569D01*
X169476000Y-92836560D01*
X167444000Y-92836560D01*
X167208683Y-92880838D01*
X166992559Y-93019910D01*
X166847569Y-93232110D01*
X166796560Y-93484000D01*
X166796560Y-93859276D01*
X166774210Y-93874210D01*
X166774208Y-93874213D01*
X162791164Y-97857256D01*
X162671057Y-97906883D01*
X162407808Y-98169673D01*
X162265162Y-98513201D01*
X162264838Y-98885167D01*
X155710000Y-98885167D01*
X155710000Y-95214873D01*
X157664812Y-95214873D01*
X157829646Y-95613800D01*
X158134595Y-95919282D01*
X158533233Y-96084811D01*
X158964873Y-96085188D01*
X159363800Y-95920354D01*
X159669282Y-95615405D01*
X159834811Y-95216767D01*
X159834812Y-95214873D01*
X160664812Y-95214873D01*
X160829646Y-95613800D01*
X161134595Y-95919282D01*
X161533233Y-96084811D01*
X161964873Y-96085188D01*
X162363800Y-95920354D01*
X162669282Y-95615405D01*
X162834811Y-95216767D01*
X162835188Y-94785127D01*
X162670354Y-94386200D01*
X162365405Y-94080718D01*
X161966767Y-93915189D01*
X161535127Y-93914812D01*
X161136200Y-94079646D01*
X160830718Y-94384595D01*
X160665189Y-94783233D01*
X160664812Y-95214873D01*
X159834812Y-95214873D01*
X159835188Y-94785127D01*
X159670354Y-94386200D01*
X159365405Y-94080718D01*
X158966767Y-93915189D01*
X158535127Y-93914812D01*
X158136200Y-94079646D01*
X157830718Y-94384595D01*
X157665189Y-94783233D01*
X157664812Y-95214873D01*
X155710000Y-95214873D01*
X155710000Y-94069931D01*
X155821046Y-93511662D01*
X156097669Y-93097667D01*
X156511660Y-92821047D01*
X157069931Y-92710000D01*
X187930069Y-92710000D01*
X188488338Y-92821046D01*
G36*
X172227000Y-115953000D02*
X172247000Y-115953000D01*
X172247000Y-116207000D01*
X172227000Y-116207000D01*
X172227000Y-116227000D01*
X171973000Y-116227000D01*
X171973000Y-116207000D01*
X171953000Y-116207000D01*
X171953000Y-115953000D01*
X171973000Y-115953000D01*
X171973000Y-115933000D01*
X172227000Y-115933000D01*
X172227000Y-115953000D01*
X172227000Y-115953000D01*
G37*
X172227000Y-115953000D02*
X172247000Y-115953000D01*
X172247000Y-116207000D01*
X172227000Y-116207000D01*
X172227000Y-116227000D01*
X171973000Y-116227000D01*
X171973000Y-116207000D01*
X171953000Y-116207000D01*
X171953000Y-115953000D01*
X171973000Y-115953000D01*
X171973000Y-115933000D01*
X172227000Y-115933000D01*
X172227000Y-115953000D01*
G36*
X177579162Y-104450741D02*
X177579162Y-107937649D01*
X175635724Y-105994210D01*
X175564768Y-105946799D01*
X175348609Y-105802367D01*
X175248586Y-105782471D01*
X175009934Y-105734999D01*
X175009929Y-105735000D01*
X174732003Y-105735000D01*
X174726602Y-105721928D01*
X174355065Y-105349743D01*
X174725032Y-104980421D01*
X174967224Y-104397159D01*
X174967775Y-103765612D01*
X174726602Y-103181928D01*
X174355065Y-102809743D01*
X174725032Y-102440421D01*
X174967224Y-101857159D01*
X174967240Y-101838820D01*
X177579162Y-104450741D01*
X177579162Y-104450741D01*
G37*
X177579162Y-104450741D02*
X177579162Y-107937649D01*
X175635724Y-105994210D01*
X175564768Y-105946799D01*
X175348609Y-105802367D01*
X175248586Y-105782471D01*
X175009934Y-105734999D01*
X175009929Y-105735000D01*
X174732003Y-105735000D01*
X174726602Y-105721928D01*
X174355065Y-105349743D01*
X174725032Y-104980421D01*
X174967224Y-104397159D01*
X174967775Y-103765612D01*
X174726602Y-103181928D01*
X174355065Y-102809743D01*
X174725032Y-102440421D01*
X174967224Y-101857159D01*
X174967240Y-101838820D01*
X177579162Y-104450741D01*
M02*
